SplineFontDB: 3.0
FontName: Bodoni-11-Bold
FullName: Bodoni* 11 Bold
FamilyName: Bodoni* 11
Weight: Bold
Copyright: Copyright (c) 2017, Owen Earl,,, (EwonRael@yahoo.com)
Version: 001.2
ItalicAngle: 0
UnderlinePosition: -800
UnderlineWidth: 400
Ascent: 6400
Descent: 1600
InvalidEm: 0
LayerCount: 2
Layer: 0 0 "Back" 1
Layer: 1 0 "Fore" 0
PreferredKerning: 4
XUID: [1021 31 -699969567 16487490]
FSType: 0
OS2Version: 0
OS2_WeightWidthSlopeOnly: 0
OS2_UseTypoMetrics: 1
CreationTime: 1460762150
ModificationTime: 1548990189
PfmFamily: 17
TTFWeight: 700
TTFWidth: 5
LineGap: 800
VLineGap: 0
OS2TypoAscent: 6400
OS2TypoAOffset: 0
OS2TypoDescent: -1600
OS2TypoDOffset: 0
OS2TypoLinegap: 800
OS2WinAscent: 8000
OS2WinAOffset: 0
OS2WinDescent: 3200
OS2WinDOffset: 0
HheadAscent: 8000
HheadAOffset: 0
HheadDescent: -1600
HheadDOffset: 0
OS2CapHeight: 700
OS2XHeight: 460
OS2FamilyClass: 768
OS2Vendor: 'PfEd'
OS2UnicodeRanges: 00000001.00000000.00000000.00000000
Lookup: 1 0 0 "'ss02' Style Set 2 lookup 4" { "'ss02' Style Set 2 lookup 4-1"  } ['ss02' ('DFLT' <'dflt' > 'grek' <'dflt' > 'latn' <'dflt' > ) ]
Lookup: 1 0 0 "'ss03' Style Set 3 lookup 5" { "'ss03' Style Set 3 lookup 5-1"  } ['ss03' ('DFLT' <'dflt' > 'grek' <'dflt' > 'latn' <'dflt' > ) ]
Lookup: 1 0 0 "'ss01' Style Set 1 lookup 2" { "'ss01' Style Set 1 lookup 2-1"  } ['ss01' ('DFLT' <'dflt' > 'grek' <'dflt' > 'latn' <'dflt' > ) ]
Lookup: 5 0 0 "'calt' Contextual Alternates lookup 3" { "'calt' Contextual Alternates lookup 3-1"  } ['calt' ('DFLT' <'dflt' > 'grek' <'dflt' > 'latn' <'dflt' > ) ]
Lookup: 4 0 1 "'liga' Standard Ligatures lookup 0" { "'liga' Standard Ligatures lookup 0-1"  } ['liga' ('DFLT' <'dflt' > 'grek' <'dflt' > 'latn' <'dflt' > ) ]
Lookup: 258 0 0 "'kern' Horizontal Kerning lookup 0" { "kerning like they all do" [150,0,6] } ['kern' ('DFLT' <'dflt' > 'grek' <'dflt' > 'latn' <'dflt' > ) ]
MarkAttachClasses: 1
DEI: 91125
KernClass2: 31 27 "kerning like they all do"

StartChar: ampersand
Encoding: 38 38 0
GlifName: ampersand
Width: 6888
Flags: HMW
LayerCount: 2
Fore
SplineSet
4672 3680 m 1
 6592 3680 l 1
 6592 3520 l 1
 4672 3520 l 1
 4672 3680 l 1
5888 3600 m 1
 5648 1816 4416 -80 2272 -80 c 0
 1008 -80 320 536 320 1440 c 0
 320 2624 1728 2944 2688 3456 c 0
 3328 3792 3728 4008 3728 5080 c 0
 3728 5536 3616 5960 3168 5960 c 0
 2736 5960 2568 5624 2568 5240 c 0
 2568 4920 2808 4432 3152 3920 c 2
 5648 160 l 1
 6672 160 l 1
 6672 0 l 1
 4320 0 l 1
 1672 3920 l 2
 1464 4224 1304 4624 1304 4904 c 0
 1304 5624 2064 6080 3192 6080 c 0
 4248 6080 4920 5688 4920 5048 c 0
 4920 4144 3792 3936 2704 3360 c 0
 2088 3032 1680 2760 1680 1880 c 0
 1680 1024 2240 312 2992 312 c 0
 4320 312 5568 1984 5728 3600 c 1
 5888 3600 l 1
EndSplineSet
EndChar

StartChar: period
Encoding: 46 46 1
GlifName: period
Width: 2080
Flags: HMW
LayerCount: 2
Fore
SplineSet
320 640 m 0
 320 1040 640 1360 1040 1360 c 0
 1440 1360 1760 1040 1760 640 c 0
 1760 240 1440 -80 1040 -80 c 0
 640 -80 320 240 320 640 c 0
EndSplineSet
EndChar

StartChar: zero
Encoding: 48 48 2
GlifName: zero
Width: 5280
Flags: HMW
LayerCount: 2
Fore
SplineSet
2640 -80 m 0
 1256 -80 320 1256 320 3000 c 0
 320 4744 1336 6080 2640 6080 c 0
 3944 6080 4960 4744 4960 3000 c 0
 4960 1256 4024 -80 2640 -80 c 0
2640 5944 m 0
 1888 5944 1720 4656 1720 3000 c 0
 1720 1344 1808 56 2640 56 c 0
 3472 56 3560 1344 3560 3000 c 0
 3560 4656 3432 5944 2640 5944 c 0
EndSplineSet
EndChar

StartChar: one
Encoding: 49 49 3
GlifName: one
Width: 3960
VWidth: 9240
Flags: HMW
LayerCount: 2
Fore
SplineSet
400 160 m 1
 3560 160 l 1
 3560 0 l 1
 400 0 l 1
 400 160 l 1
536 6000 m 1
 2680 6000 l 1
 2680 80 l 1
 1440 80 l 1
 1440 5840 l 1
 536 5840 l 1
 536 6000 l 1
EndSplineSet
EndChar

StartChar: two
Encoding: 50 50 4
GlifName: two
Width: 4800
VWidth: 9240
Flags: HMW
LayerCount: 2
Fore
SplineSet
4520 0 m 1
 320 0 l 1
 320 800 l 1
 2000 2176 l 2
 2656 2720 3072 3368 3072 4240 c 0
 3072 5232 2608 5712 1864 5712 c 0
 1152 5712 632 5176 600 4480 c 1
 688 4704 936 4896 1192 4896 c 0
 1584 4896 1904 4608 1904 4208 c 0
 1904 3768 1520 3472 1120 3472 c 0
 720 3472 400 3776 400 4392 c 0
 400 5328 1144 6080 2400 6080 c 0
 3648 6080 4352 5400 4352 4560 c 0
 4352 3640 3656 3200 3064 2752 c 2
 1192 1200 l 1
 4360 1200 l 1
 4360 1800 l 1
 4520 1800 l 1
 4520 0 l 1
EndSplineSet
EndChar

StartChar: three
Encoding: 51 51 5
GlifName: three
Width: 4568
VWidth: 9240
Flags: HMW
LayerCount: 2
Fore
SplineSet
4248 1640 m 0
 4248 560 3256 -80 2048 -80 c 0
 792 -80 200 632 200 1288 c 0
 200 1736 496 2032 896 2032 c 0
 1256 2032 1536 1768 1536 1360 c 0
 1536 984 1208 720 856 720 c 0
 688 720 592 784 560 792 c 1
 720 488 1128 160 1808 160 c 0
 2680 160 2960 768 2960 1640 c 0
 2960 2352 2736 3168 1584 3168 c 1
 1584 3280 l 1
 3592 3280 4248 2560 4248 1640 c 0
1584 3208 m 1
 1584 3320 l 1
 2656 3320 2720 4176 2720 4728 c 0
 2720 5360 2440 5840 1888 5840 c 0
 1424 5840 1120 5624 960 5448 c 1
 992 5456 1048 5472 1136 5472 c 0
 1448 5472 1752 5232 1752 4848 c 0
 1752 4432 1416 4184 1096 4184 c 0
 736 4184 440 4408 440 4840 c 0
 440 5536 1272 6072 2088 6072 c 0
 3136 6072 4008 5568 4008 4688 c 0
 4008 3888 3512 3208 1584 3208 c 1
EndSplineSet
EndChar

StartChar: four
Encoding: 52 52 6
GlifName: four
Width: 5120
VWidth: 9240
Flags: HMW
LayerCount: 2
Fore
SplineSet
4760 160 m 1
 4760 0 l 1
 2160 0 l 1
 2160 160 l 1
 2920 160 l 1
 2920 5240 l 1
 584 1800 l 1
 5040 1800 l 1
 5040 1640 l 1
 280 1640 l 1
 3240 6000 l 1
 4160 6000 l 1
 4160 160 l 1
 4760 160 l 1
EndSplineSet
Substitution2: "'ss03' Style Set 3 lookup 5-1" four.alt
EndChar

StartChar: five
Encoding: 53 53 7
GlifName: five
Width: 4280
VWidth: 9240
Flags: HMW
LayerCount: 2
Fore
SplineSet
3760 4800 m 1
 616 4800 l 1
 616 2856 l 1
 456 2856 l 1
 456 6000 l 1
 3600 6000 l 1
 3600 6440 l 1
 3760 6440 l 1
 3760 4800 l 1
600 512 m 1
 680 368 1056 104 1528 104 c 0
 2400 104 2720 864 2720 1776 c 0
 2720 2848 2392 3400 1720 3400 c 0
 1200 3400 832 3120 672 2856 c 1
 536 2856 l 1
 704 3232 1168 3640 2016 3640 c 0
 3224 3640 4040 2976 4040 1776 c 0
 4040 696 3056 -80 1728 -80 c 0
 872 -80 80 376 80 1112 c 0
 80 1560 392 1848 776 1848 c 0
 1136 1848 1472 1624 1472 1184 c 0
 1472 784 1128 480 776 480 c 0
 688 480 648 496 600 512 c 1
EndSplineSet
EndChar

StartChar: six
Encoding: 54 54 8
GlifName: six
Width: 4880
VWidth: 9240
Flags: HMW
LayerCount: 2
Fore
SplineSet
3320 2000 m 0
 3320 3272 3024 3688 2512 3688 c 0
 2048 3688 1720 3280 1720 2240 c 1
 1608 2240 l 1
 1608 3216 1800 3936 2768 3936 c 0
 3656 3936 4640 3360 4640 2000 c 0
 4640 800 3840 -80 2552 -80 c 0
 1264 -80 400 800 400 2480 c 0
 400 4424 1936 6080 4040 6080 c 1
 4040 5944 l 1
 2608 5944 1720 4336 1720 2960 c 1
 1720 2240 l 1
 1720 968 1944 80 2576 80 c 0
 3208 80 3320 888 3320 2000 c 0
EndSplineSet
EndChar

StartChar: seven
Encoding: 55 55 9
GlifName: seven
Width: 4320
VWidth: 9240
Flags: HMW
LayerCount: 2
Fore
SplineSet
1184 728 m 0
 1184 1360 1848 2120 2392 2984 c 0
 2680 3448 2992 4064 3360 4760 c 1
 480 4760 l 1
 480 4160 l 1
 320 4160 l 1
 320 6000 l 1
 4240 6000 l 1
 4240 6000 3248 4080 2624 3024 c 0
 2224 2344 2176 2168 2176 1856 c 0
 2176 1352 2704 1232 2704 664 c 0
 2704 248 2424 -80 1952 -80 c 0
 1520 -80 1184 136 1184 728 c 0
EndSplineSet
EndChar

StartChar: eight
Encoding: 56 56 10
GlifName: eight
Width: 4800
VWidth: 9240
Flags: HMW
LayerCount: 2
Fore
SplineSet
1760 4480 m 0
 1760 3608 1928 3160 2400 3160 c 0
 2872 3160 3040 3608 3040 4480 c 0
 3040 5312 2872 5920 2400 5920 c 0
 1928 5920 1760 5312 1760 4480 c 0
480 4480 m 0
 480 5360 1152 6080 2400 6080 c 0
 3648 6080 4320 5360 4320 4480 c 0
 4320 3600 3648 3040 2400 3040 c 0
 1152 3040 480 3600 480 4480 c 0
1600 1520 m 0
 1600 688 1808 80 2400 80 c 0
 2992 80 3200 688 3200 1520 c 0
 3200 2352 2992 3000 2400 3000 c 0
 1808 3000 1600 2352 1600 1520 c 0
320 1520 m 0
 320 2480 992 3120 2400 3120 c 0
 3808 3120 4480 2480 4480 1520 c 0
 4480 560 3808 -80 2400 -80 c 0
 992 -80 320 560 320 1520 c 0
EndSplineSet
EndChar

StartChar: A
Encoding: 65 65 12
GlifName: A_
Width: 6256
Flags: HMW
LayerCount: 2
Fore
SplineSet
144 160 m 1
 1904 160 l 1
 1904 0 l 1
 144 0 l 1
 144 160 l 1
3424 160 m 1
 6144 160 l 1
 6144 0 l 1
 3424 0 l 1
 3424 160 l 1
1504 2040 m 1
 4144 2040 l 1
 4144 1880 l 1
 1504 1880 l 1
 1504 2040 l 1
2592 4768 m 1
 928 0 l 1
 736 0 l 1
 2896 6120 l 1
 3456 6120 l 1
 5584 0 l 1
 4144 0 l 1
 2592 4768 l 1
EndSplineSet
EndChar

StartChar: B
Encoding: 66 66 13
GlifName: B_
Width: 5576
Flags: HMW
LayerCount: 2
Fore
SplineSet
2864 3040 m 2
 1904 3040 l 1
 1904 3160 l 1
 2704 3160 l 2
 3272 3160 3744 3488 3744 4440 c 0
 3744 5392 3272 5840 2704 5840 c 2
 144 5840 l 1
 144 6000 l 1
 2864 6000 l 2
 4192 6000 5024 5560 5024 4520 c 0
 5024 3520 4272 3040 2864 3040 c 2
864 6000 m 1
 2096 6000 l 1
 2096 0 l 1
 864 0 l 1
 864 6000 l 1
3024 0 m 2
 144 0 l 1
 144 160 l 1
 2784 160 l 2
 3432 160 3904 728 3904 1680 c 0
 3904 2632 3432 3000 2784 3000 c 2
 1904 3000 l 1
 1904 3120 l 1
 3024 3120 l 2
 4272 3120 5264 2720 5264 1600 c 0
 5264 440 4432 0 3024 0 c 2
EndSplineSet
EndChar

StartChar: C
Encoding: 67 67 14
GlifName: C_
Width: 5616
Flags: HMW
LayerCount: 2
Fore
SplineSet
5104 6000 m 1
 5216 6000 l 1
 5216 4240 l 1
 4416 5560 l 1
 5104 6000 l 1
5216 4240 m 1
 5056 4240 l 1
 4696 5216 4128 5856 3296 5856 c 0
 2104 5856 1744 4456 1744 3000 c 0
 1744 1544 2104 144 3296 144 c 0
 4328 144 4776 864 5136 1760 c 1
 5296 1760 l 1
 5056 696 4360 -80 3216 -80 c 0
 1432 -80 336 1216 336 3000 c 0
 336 4784 1432 6080 3216 6080 c 0
 4240 6080 4936 5304 5216 4240 c 1
5296 1760 m 1
 5296 0 l 1
 5184 0 l 1
 4496 480 l 1
 5296 1760 l 1
EndSplineSet
EndChar

StartChar: D
Encoding: 68 68 15
GlifName: D_
Width: 6056
Flags: HMW
LayerCount: 2
Fore
SplineSet
864 6000 m 1
 2096 6000 l 1
 2096 0 l 1
 864 0 l 1
 864 6000 l 1
2704 0 m 2
 144 0 l 1
 144 160 l 1
 2704 160 l 2
 3936 160 4336 1424 4336 3000 c 0
 4336 4576 3856 5840 2704 5840 c 2
 144 5840 l 1
 144 6000 l 1
 2704 6000 l 2
 4608 6000 5744 4784 5744 3000 c 0
 5744 1216 4528 0 2704 0 c 2
EndSplineSet
EndChar

StartChar: E
Encoding: 69 69 16
GlifName: E_
Width: 5016
Flags: HMW
LayerCount: 2
Fore
SplineSet
4624 1800 m 1
 4784 1800 l 1
 4784 0 l 1
 144 0 l 1
 144 160 l 1
 2944 160 l 2
 4040 160 4504 784 4624 1800 c 1
864 6000 m 1
 2096 6000 l 1
 2096 0 l 1
 864 0 l 1
 864 6000 l 1
144 6000 m 1
 4704 6000 l 1
 4704 4360 l 1
 4544 4360 l 1
 4424 5216 3960 5840 3024 5840 c 2
 144 5840 l 1
 144 6000 l 1
3296 2104 m 1
 3176 2640 2840 3024 2384 3024 c 2
 1824 3024 l 1
 1824 3184 l 1
 2384 3184 l 2
 2840 3184 3176 3528 3296 4064 c 1
 3456 4064 l 1
 3456 2104 l 1
 3296 2104 l 1
EndSplineSet
EndChar

StartChar: F
Encoding: 70 70 17
GlifName: F_
Width: 4816
Flags: HMW
LayerCount: 2
Fore
SplineSet
144 6000 m 1
 4576 6000 l 1
 4576 4360 l 1
 4416 4360 l 1
 4296 5216 3920 5840 3024 5840 c 2
 144 5840 l 1
 144 6000 l 1
144 160 m 1
 2896 160 l 1
 2896 0 l 1
 144 0 l 1
 144 160 l 1
864 6000 m 1
 2096 6000 l 1
 2096 0 l 1
 864 0 l 1
 864 6000 l 1
3296 1984 m 1
 3176 2520 2920 2904 2304 2904 c 2
 1776 2904 l 1
 1776 3064 l 1
 2304 3064 l 2
 2920 3064 3176 3408 3296 3944 c 1
 3456 3944 l 1
 3456 1984 l 1
 3296 1984 l 1
EndSplineSet
EndChar

StartChar: G
Encoding: 71 71 18
GlifName: G_
Width: 6056
Flags: HMW
LayerCount: 2
Fore
SplineSet
5376 4240 m 1
 5296 4528 4688 5440 4496 5600 c 1
 5264 6000 l 1
 5376 6000 l 1
 5376 4240 l 1
3424 2360 m 1
 5984 2360 l 1
 5984 2200 l 1
 3424 2200 l 1
 3424 2360 l 1
4256 2240 m 1
 5584 2240 l 1
 5584 1240 l 1
 5064 696 4488 -80 3184 -80 c 0
 1400 -80 336 1136 336 3000 c 0
 336 4864 1672 6080 3296 6080 c 0
 4320 6080 5376 5224 5376 4240 c 1
 5216 4240 l 1
 5016 5056 4336 5856 3424 5856 c 0
 2232 5856 1744 4456 1744 3000 c 0
 1744 1544 2032 120 3184 120 c 0
 3856 120 4136 664 4256 1000 c 1
 4256 2240 l 1
EndSplineSet
EndChar

StartChar: H
Encoding: 72 72 19
GlifName: H_
Width: 6336
Flags: HMW
LayerCount: 2
Fore
SplineSet
1936 3040 m 1
 4416 3040 l 1
 4416 2880 l 1
 1936 2880 l 1
 1936 3040 l 1
3536 160 m 1
 6224 160 l 1
 6224 0 l 1
 3536 0 l 1
 3536 160 l 1
144 160 m 1
 2816 160 l 1
 2816 0 l 1
 144 0 l 1
 144 160 l 1
3536 6000 m 1
 6224 6000 l 1
 6224 5840 l 1
 3536 5840 l 1
 3536 6000 l 1
144 6000 m 1
 2816 6000 l 1
 2816 5840 l 1
 144 5840 l 1
 144 6000 l 1
4256 6000 m 1
 5504 6000 l 1
 5504 0 l 1
 4256 0 l 1
 4256 6000 l 1
864 6000 m 1
 2096 6000 l 1
 2096 0 l 1
 864 0 l 1
 864 6000 l 1
EndSplineSet
EndChar

StartChar: I
Encoding: 73 73 20
GlifName: I_
Width: 3336
Flags: HMW
LayerCount: 2
Fore
SplineSet
144 160 m 1
 3216 160 l 1
 3216 0 l 1
 144 0 l 1
 144 160 l 1
144 6000 m 1
 3216 6000 l 1
 3216 5840 l 1
 144 5840 l 1
 144 6000 l 1
1024 6000 m 1
 2256 6000 l 1
 2256 0 l 1
 1024 0 l 1
 1024 6000 l 1
EndSplineSet
EndChar

StartChar: J
Encoding: 74 74 21
GlifName: J_
Width: 4264
Flags: HMW
LayerCount: 2
Fore
SplineSet
1072 6000 m 1
 4144 6000 l 1
 4144 5840 l 1
 1072 5840 l 1
 1072 6000 l 1
2112 6000 m 1
 3344 6000 l 1
 3344 1360 l 1
 3024 600 2592 -240 1424 -240 c 0
 608 -240 96 240 96 840 c 0
 96 1296 432 1600 832 1600 c 0
 1192 1600 1520 1336 1520 888 c 0
 1520 488 1216 176 832 176 c 0
 784 176 704 192 640 208 c 1
 792 64 1064 -72 1392 -72 c 0
 1960 -72 2112 400 2112 1520 c 2
 2112 6000 l 1
EndSplineSet
Substitution2: "'ss02' Style Set 2 lookup 4-1" J.alt
EndChar

StartChar: K
Encoding: 75 75 22
GlifName: K_
Width: 6136
Flags: HMW
LayerCount: 2
Fore
SplineSet
144 160 m 1
 2816 160 l 1
 2816 0 l 1
 144 0 l 1
 144 160 l 1
144 6000 m 1
 2896 6000 l 1
 2896 5840 l 1
 144 5840 l 1
 144 6000 l 1
864 6000 m 1
 2096 6000 l 1
 2096 0 l 1
 864 0 l 1
 864 6000 l 1
1400 1736 m 1
 1152 1736 l 1
 4784 5984 l 1
 5032 5984 l 1
 1400 1736 l 1
3216 160 m 1
 6096 160 l 1
 6096 0 l 1
 3216 0 l 1
 3216 160 l 1
5744 5840 m 1
 3824 5840 l 1
 3824 6000 l 1
 5744 6000 l 1
 5744 5840 l 1
5472 0 m 1
 4032 0 l 1
 2336 3000 l 1
 3168 3904 l 1
 5472 0 l 1
EndSplineSet
EndChar

StartChar: L
Encoding: 76 76 23
GlifName: L_
Width: 4920
Flags: HMW
LayerCount: 2
Fore
SplineSet
864 6000 m 1
 2096 6000 l 1
 2096 0 l 1
 864 0 l 1
 864 6000 l 1
144 6000 m 1
 2816 6000 l 1
 2816 5840 l 1
 144 5840 l 1
 144 6000 l 1
4760 0 m 1
 144 0 l 1
 144 160 l 1
 2920 160 l 2
 4096 160 4480 784 4600 1800 c 1
 4760 1800 l 1
 4760 0 l 1
EndSplineSet
EndChar

StartChar: M
Encoding: 77 77 24
GlifName: M_
Width: 7056
Flags: HMW
LayerCount: 2
Fore
SplineSet
6944 6000 m 1
 6944 5840 l 1
 6384 5840 l 1
 6384 0 l 1
 5136 0 l 1
 5136 6000 l 1
 6944 6000 l 1
176 160 m 1
 1472 160 l 1
 1472 0 l 1
 176 0 l 1
 176 160 l 1
4496 160 m 1
 6944 160 l 1
 6944 0 l 1
 4496 0 l 1
 4496 160 l 1
3592 1712 m 1
 5040 6000 l 1
 5216 6000 l 1
 3168 -80 l 1
 2992 -80 l 1
 768 6000 l 1
 2016 6000 l 1
 3592 1712 l 1
736 5840 m 1
 144 5840 l 1
 144 6000 l 1
 912 6000 l 1
 912 0 l 1
 736 0 l 1
 736 5840 l 1
EndSplineSet
EndChar

StartChar: N
Encoding: 78 78 25
GlifName: N_
Width: 6056
Flags: HMW
LayerCount: 2
Fore
SplineSet
4928 6000 m 1
 5104 6000 l 1
 5104 -80 l 1
 4816 -80 l 1
 944 6000 l 1
 2416 6000 l 1
 4928 2056 l 1
 4928 6000 l 1
4048 6000 m 1
 5936 6000 l 1
 5936 5840 l 1
 4048 5840 l 1
 4048 6000 l 1
144 160 m 1
 2080 160 l 1
 2080 0 l 1
 144 0 l 1
 144 160 l 1
976 5840 m 1
 144 5840 l 1
 144 6000 l 1
 1152 6000 l 1
 1152 0 l 1
 976 0 l 1
 976 5840 l 1
EndSplineSet
EndChar

StartChar: O
Encoding: 79 79 26
GlifName: O_
Width: 6096
Flags: HMW
LayerCount: 2
Fore
SplineSet
3056 -80 m 0
 1352 -80 336 1256 336 3000 c 0
 336 4744 1432 6080 3056 6080 c 0
 4680 6080 5776 4744 5776 3000 c 0
 5776 1256 4760 -80 3056 -80 c 0
3056 5944 m 0
 2024 5944 1744 4656 1744 3000 c 0
 1744 1344 1944 56 3056 56 c 0
 4168 56 4384 1344 4384 3000 c 0
 4384 4656 4088 5944 3056 5944 c 0
EndSplineSet
EndChar

StartChar: P
Encoding: 80 80 27
GlifName: P_
Width: 5376
Flags: HMW
LayerCount: 2
Fore
SplineSet
864 6000 m 1
 2096 6000 l 1
 2096 0 l 1
 864 0 l 1
 864 6000 l 1
144 160 m 1
 2816 160 l 1
 2816 0 l 1
 144 0 l 1
 144 160 l 1
2896 2640 m 2
 1744 2640 l 1
 1744 2800 l 1
 2736 2800 l 2
 3424 2800 3744 3608 3744 4320 c 0
 3744 5032 3424 5840 2736 5840 c 2
 144 5840 l 1
 144 6000 l 1
 2896 6000 l 2
 4424 6000 5104 5360 5104 4320 c 0
 5104 3280 4424 2640 2896 2640 c 2
EndSplineSet
EndChar

StartChar: Q
Encoding: 81 81 28
GlifName: Q_
Width: 6096
Flags: HMW
LayerCount: 2
Fore
SplineSet
3056 -80 m 0
 1352 -80 336 1256 336 3000 c 0
 336 4744 1432 6080 3056 6080 c 0
 4680 6080 5776 4744 5776 3000 c 0
 5776 1256 4760 -80 3056 -80 c 0
3056 5944 m 0
 2024 5944 1744 4656 1744 3000 c 0
 1744 1344 1944 56 3056 56 c 0
 4168 56 4384 1344 4384 3000 c 0
 4384 4656 4088 5944 3056 5944 c 0
4656 -1840 m 1
 4656 -2000 l 1
 2672 -2000 2336 -1544 2336 40 c 1
 2648 0 3432 0 3744 40 c 1
 3744 -1416 3824 -1840 4656 -1840 c 1
EndSplineSet
EndChar

StartChar: R
Encoding: 82 82 29
GlifName: R_
Width: 5936
Flags: HMW
LayerCount: 2
Fore
SplineSet
2944 3056 m 2
 1584 3056 l 1
 1584 3160 l 1
 2736 3160 l 2
 3504 3160 3904 3568 3904 4520 c 0
 3904 5472 3504 5840 2736 5840 c 2
 144 5840 l 1
 144 6000 l 1
 2944 6000 l 2
 4272 6000 5184 5560 5184 4520 c 0
 5184 3480 4352 3056 2944 3056 c 2
144 160 m 1
 2976 160 l 1
 2976 0 l 1
 144 0 l 1
 144 160 l 1
944 6000 m 1
 2176 6000 l 1
 2176 0 l 1
 944 0 l 1
 944 6000 l 1
5856 96 m 1
 5728 24 5344 -64 4896 -64 c 0
 2712 -64 4704 3000 2736 3000 c 2
 1584 3000 l 1
 1584 3080 l 1
 3376 3080 l 2
 6000 3080 4440 176 5424 176 c 0
 5592 176 5696 208 5808 256 c 1
 5856 96 l 1
EndSplineSet
Substitution2: "'ss01' Style Set 1 lookup 2-1" R.alt
EndChar

StartChar: S
Encoding: 83 83 30
GlifName: S_
Width: 4776
Flags: HMW
LayerCount: 2
Fore
SplineSet
4144 4280 m 1
 3984 4280 l 1
 3664 5232 3064 5888 2272 5888 c 0
 1624 5888 1264 5552 1264 5000 c 0
 1264 3640 4464 4000 4464 1720 c 0
 4464 600 3592 -120 2464 -120 c 0
 1216 -120 648 840 336 1800 c 1
 496 1800 l 1
 776 1008 1352 64 2384 64 c 0
 3152 64 3616 488 3616 1160 c 0
 3616 2680 416 2160 416 4480 c 0
 416 5480 1264 6080 2192 6080 c 0
 3176 6080 3824 5408 4144 4280 c 1
4016 6080 m 1
 4144 6080 l 1
 4144 4280 l 1
 3376 5600 l 1
 4016 6080 l 1
464 -80 m 1
 336 -80 l 1
 336 1800 l 1
 1120 432 l 1
 464 -80 l 1
EndSplineSet
EndChar

StartChar: T
Encoding: 84 84 31
GlifName: T_
Width: 5416
Flags: HMW
LayerCount: 2
Fore
SplineSet
1216 160 m 1
 4224 160 l 1
 4224 0 l 1
 1216 0 l 1
 1216 160 l 1
2096 5920 m 1
 3344 5920 l 1
 3344 0 l 1
 2096 0 l 1
 2096 5920 l 1
3856 5840 m 2
 1584 5840 l 2
 728 5840 424 5096 304 4080 c 1
 144 4080 l 1
 144 6000 l 1
 5296 6000 l 1
 5296 4080 l 1
 5136 4080 l 1
 5016 5096 4712 5840 3856 5840 c 2
EndSplineSet
EndChar

StartChar: U
Encoding: 85 85 32
GlifName: U_
Width: 5776
Flags: HMW
LayerCount: 2
Fore
SplineSet
4096 6000 m 1
 5664 6000 l 1
 5664 5840 l 1
 4096 5840 l 1
 4096 6000 l 1
144 6000 m 1
 2896 6000 l 1
 2896 5840 l 1
 144 5840 l 1
 144 6000 l 1
4784 6000 m 1
 4944 6000 l 1
 4944 1840 l 2
 4944 520 4328 -120 3024 -120 c 0
 1520 -120 864 456 864 1840 c 2
 864 6000 l 1
 2096 6000 l 1
 2096 1920 l 2
 2096 864 2312 120 3344 120 c 0
 4136 120 4784 624 4784 1840 c 2
 4784 6000 l 1
EndSplineSet
EndChar

StartChar: V
Encoding: 86 86 33
GlifName: V_
Width: 6176
Flags: HMW
LayerCount: 2
Fore
SplineSet
6096 5840 m 1
 4336 5840 l 1
 4336 6000 l 1
 6096 6000 l 1
 6096 5840 l 1
2976 5840 m 1
 96 5840 l 1
 96 6000 l 1
 2976 6000 l 1
 2976 5840 l 1
3648 1232 m 1
 5312 6000 l 1
 5504 6000 l 1
 3344 -120 l 1
 2784 -120 l 1
 656 6000 l 1
 2096 6000 l 1
 3648 1232 l 1
EndSplineSet
EndChar

StartChar: W
Encoding: 87 87 34
GlifName: W_
Width: 8816
Flags: HMW
LayerCount: 2
Fore
SplineSet
4848 3800 m 1
 3456 -80 l 1
 2944 -80 l 1
 736 6000 l 1
 2144 6000 l 1
 3792 1384 l 1
 4720 3968 l 1
 4848 3800 l 1
5320 3728 m 1
 5184 3888 l 1
 5968 6000 l 1
 6160 6000 l 1
 5320 3728 l 1
8736 5840 m 1
 7136 5840 l 1
 7136 6000 l 1
 8736 6000 l 1
 8736 5840 l 1
4584 6000 m 1
 6232 1384 l 1
 7904 6000 l 1
 8096 6000 l 1
 5904 -80 l 1
 5504 -80 l 1
 3296 6000 l 1
 4584 6000 l 1
6784 5840 m 1
 96 5840 l 1
 96 6000 l 1
 6784 6000 l 1
 6784 5840 l 1
EndSplineSet
EndChar

StartChar: X
Encoding: 88 88 35
GlifName: X_
Width: 6336
Flags: HMW
LayerCount: 2
Fore
SplineSet
3296 3016 m 1
 3056 3016 l 1
 4944 5984 l 1
 5152 5984 l 1
 3296 3016 l 1
1008 0 m 1
 784 0 l 1
 3008 3336 l 1
 3216 3336 l 1
 1008 0 l 1
3536 160 m 1
 6256 160 l 1
 6256 0 l 1
 3536 0 l 1
 3536 160 l 1
96 160 m 1
 2016 160 l 1
 2016 0 l 1
 96 0 l 1
 96 160 l 1
3104 5840 m 1
 384 5840 l 1
 384 6000 l 1
 3104 6000 l 1
 3104 5840 l 1
5824 5840 m 1
 4064 5840 l 1
 4064 6000 l 1
 5824 6000 l 1
 5824 5840 l 1
5744 0 m 1
 4304 0 l 1
 864 6000 l 1
 2272 6000 l 1
 5744 0 l 1
EndSplineSet
EndChar

StartChar: Y
Encoding: 89 89 36
GlifName: Y_
Width: 5896
Flags: HMW
LayerCount: 2
Fore
SplineSet
5824 5840 m 1
 4144 5840 l 1
 4144 6000 l 1
 5824 6000 l 1
 5824 5840 l 1
2896 5840 m 1
 96 5840 l 1
 96 6000 l 1
 2896 6000 l 1
 2896 5840 l 1
1696 160 m 1
 4464 160 l 1
 4464 0 l 1
 1696 0 l 1
 1696 160 l 1
3584 3296 m 1
 5104 5984 l 1
 5312 5984 l 1
 3664 3064 l 1
 3664 0 l 1
 2416 0 l 1
 2416 2880 l 1
 576 6000 l 1
 2016 6000 l 1
 3584 3296 l 1
EndSplineSet
EndChar

StartChar: Z
Encoding: 90 90 37
GlifName: Z_
Width: 4936
Flags: HMW
LayerCount: 2
Fore
SplineSet
256 6000 m 1
 4576 6000 l 1
 4576 5840 l 1
 1504 160 l 1
 2976 160 l 2
 4072 160 4336 624 4496 1640 c 1
 4656 1640 l 1
 4656 0 l 1
 96 0 l 1
 96 160 l 1
 3184 5840 l 1
 1936 5840 l 2
 840 5840 576 5376 416 4520 c 1
 256 4520 l 1
 256 6000 l 1
EndSplineSet
EndChar

StartChar: a
Encoding: 97 97 38
GlifName: a
Width: 4688
VWidth: 9240
Flags: HMW
LayerCount: 2
Fore
SplineSet
4648 504 m 1
 4464 104 4048 -80 3584 -80 c 0
 3088 -80 2648 112 2648 624 c 2
 2648 2440 l 2
 2648 3056 2488 3560 1888 3560 c 0
 1616 3560 1448 3504 1336 3424 c 1
 1560 3408 1888 3280 1888 2904 c 0
 1888 2544 1536 2328 1216 2328 c 0
 856 2328 600 2560 600 2888 c 0
 600 3400 1296 3744 2104 3744 c 0
 3424 3744 3768 3168 3768 2440 c 2
 3768 512 l 2
 3768 352 3872 232 4064 232 c 0
 4208 232 4376 296 4528 568 c 1
 4648 504 l 1
2072 2088 m 2
 3064 2088 l 1
 3064 1928 l 1
 2352 1928 l 2
 1864 1928 1536 1536 1536 1040 c 0
 1536 664 1664 368 1984 368 c 0
 2280 368 2648 640 2648 1448 c 1
 2768 1448 l 1
 2768 456 2288 -80 1400 -80 c 0
 768 -80 320 312 320 904 c 0
 320 1576 936 2088 2072 2088 c 2
EndSplineSet
EndChar

StartChar: b
Encoding: 98 98 39
GlifName: b
Width: 5064
VWidth: 9240
Flags: HMW
LayerCount: 2
Fore
SplineSet
1720 1840 m 0
 1720 3056 2200 3752 3088 3752 c 0
 3960 3752 4784 3040 4784 1840 c 0
 4784 640 3960 -80 3088 -80 c 0
 2200 -80 1720 624 1720 1840 c 0
1840 1840 m 0
 1840 768 2336 176 2784 176 c 0
 3256 176 3504 688 3504 1840 c 0
 3504 2992 3256 3488 2784 3488 c 0
 2336 3488 1840 2912 1840 1840 c 0
720 5840 m 1
 160 5840 l 1
 160 6000 l 1
 1840 6000 l 1
 1840 0 l 1
 160 0 l 1
 160 160 l 1
 720 160 l 1
 720 5840 l 1
EndSplineSet
EndChar

StartChar: c
Encoding: 99 99 40
GlifName: c
Width: 4168
VWidth: 9240
Flags: HMW
LayerCount: 2
Fore
SplineSet
3264 3240 m 1
 3168 3384 2840 3584 2448 3584 c 0
 1696 3584 1600 2592 1600 1840 c 0
 1600 928 1800 152 2512 152 c 0
 3072 152 3448 560 3648 1144 c 1
 3824 1144 l 1
 3616 448 3152 -80 2264 -80 c 0
 1096 -80 280 560 280 1840 c 0
 280 2960 984 3760 2312 3760 c 0
 3168 3760 3824 3288 3824 2672 c 0
 3824 2264 3544 2032 3184 2032 c 0
 2864 2032 2528 2192 2528 2656 c 0
 2528 3056 2832 3264 3104 3264 c 0
 3200 3264 3248 3240 3264 3240 c 1
EndSplineSet
EndChar

StartChar: d
Encoding: 100 100 41
GlifName: d
Width: 5064
VWidth: 9240
Flags: HMW
LayerCount: 2
Fore
SplineSet
3344 1840 m 0
 3344 624 2864 -80 1976 -80 c 0
 1104 -80 280 640 280 1840 c 0
 280 3040 1104 3752 1976 3752 c 0
 2864 3752 3344 3056 3344 1840 c 0
3224 1840 m 0
 3224 2992 2688 3488 2272 3488 c 0
 1800 3488 1560 3032 1560 1840 c 0
 1560 648 1848 224 2320 224 c 0
 2736 224 3224 688 3224 1840 c 0
4904 160 m 1
 4904 0 l 1
 3224 0 l 1
 3224 5840 l 1
 2664 5840 l 1
 2664 6000 l 1
 4344 6000 l 1
 4344 160 l 1
 4904 160 l 1
EndSplineSet
EndChar

StartChar: e
Encoding: 101 101 42
GlifName: e
Width: 4240
VWidth: 9240
Flags: HMW
LayerCount: 2
Fore
SplineSet
816 2008 m 1
 816 2168 l 1
 2784 2168 l 1
 2776 2792 2736 3600 2224 3600 c 0
 1672 3600 1520 2832 1520 1920 c 0
 1520 888 1712 120 2464 120 c 0
 3128 120 3624 560 3824 1144 c 1
 3984 1144 l 1
 3776 448 3208 -80 2240 -80 c 0
 1112 -80 280 600 280 1840 c 0
 280 3080 1096 3760 2224 3760 c 0
 3416 3760 3976 2880 3976 2008 c 1
 816 2008 l 1
EndSplineSet
EndChar

StartChar: f
Encoding: 102 102 43
GlifName: f
Width: 3160
VWidth: 9240
Flags: HMW
LayerCount: 2
Fore
SplineSet
120 160 m 1
 2880 160 l 1
 2880 0 l 1
 120 0 l 1
 120 160 l 1
120 3680 m 1
 3040 3680 l 1
 3040 3520 l 1
 120 3520 l 1
 120 3680 l 1
3464 5680 m 1
 3368 5768 3168 5920 2816 5920 c 0
 2176 5920 1920 5336 1920 4320 c 2
 1920 0 l 1
 840 0 l 1
 840 4096 l 2
 840 5224 1616 6080 2776 6080 c 0
 3464 6080 3880 5624 3880 5168 c 0
 3880 4760 3624 4512 3264 4512 c 0
 2944 4512 2616 4704 2616 5104 c 0
 2616 5488 2904 5728 3240 5728 c 0
 3352 5728 3464 5680 3464 5680 c 1
EndSplineSet
EndChar

StartChar: g
Encoding: 103 103 44
GlifName: g
Width: 5016
VWidth: 9240
Flags: HMW
LayerCount: 2
Fore
SplineSet
416 592 m 0
 416 1264 1416 1416 2176 1416 c 1
 2160 1344 l 1
 1816 1344 1120 1216 1120 928 c 0
 1120 688 1496 672 1936 672 c 0
 2216 672 2400 680 2624 680 c 0
 3224 680 3960 432 3960 -656 c 0
 3960 -1624 3160 -2080 2080 -2080 c 0
 1136 -2080 160 -1800 160 -1040 c 0
 160 -312 1000 -136 1360 -136 c 2
 1440 -136 l 1
 1160 -288 1120 -640 1120 -816 c 0
 1120 -1440 1480 -1888 2168 -1888 c 0
 2840 -1888 3456 -1672 3456 -976 c 0
 3456 -544 3160 -272 2640 -272 c 0
 2432 -272 1984 -272 1808 -272 c 0
 1088 -272 416 -24 416 592 c 0
1520 2520 m 0
 1520 1848 1560 1440 1992 1440 c 0
 2304 1440 2464 1848 2464 2520 c 0
 2464 3192 2304 3600 1992 3600 c 0
 1680 3600 1520 3192 1520 2520 c 0
360 2520 m 0
 360 3400 1224 3760 1992 3760 c 0
 2760 3760 3624 3400 3624 2520 c 0
 3624 1640 2760 1280 1992 1280 c 0
 1224 1280 360 1640 360 2520 c 0
4552 3400 m 1
 4472 3528 4304 3560 4128 3560 c 0
 3776 3560 3360 3376 3200 2680 c 1
 3064 2776 l 1
 3224 3504 3728 3720 4128 3720 c 0
 4656 3720 4896 3360 4896 3056 c 0
 4896 2616 4624 2472 4384 2472 c 0
 4144 2472 3888 2632 3888 2976 c 0
 3888 3240 4064 3448 4352 3448 c 0
 4464 3448 4520 3416 4552 3400 c 1
EndSplineSet
EndChar

StartChar: h
Encoding: 104 104 45
GlifName: h
Width: 5000
VWidth: 9240
Flags: HMW
LayerCount: 2
Fore
SplineSet
3160 2464 m 2
 3160 3136 3024 3376 2688 3376 c 0
 2176 3376 1840 2608 1840 1784 c 1
 1720 1784 l 1
 1720 2600 1960 3760 3144 3760 c 0
 4040 3760 4280 3248 4280 2552 c 2
 4280 0 l 1
 3160 0 l 1
 3160 2464 l 2
2720 160 m 1
 4840 160 l 1
 4840 0 l 1
 2720 0 l 1
 2720 160 l 1
160 160 m 1
 2280 160 l 1
 2280 0 l 1
 160 0 l 1
 160 160 l 1
720 5840 m 1
 160 5840 l 1
 160 6000 l 1
 1840 6000 l 1
 1840 0 l 1
 720 0 l 1
 720 5840 l 1
EndSplineSet
EndChar

StartChar: i
Encoding: 105 105 46
GlifName: i
Width: 2584
VWidth: 9240
Flags: HMW
LayerCount: 2
Fore
SplineSet
200 160 m 1
 2440 160 l 1
 2440 0 l 1
 200 0 l 1
 200 160 l 1
560 5400 m 0
 560 5784 856 6080 1240 6080 c 0
 1624 6080 1920 5784 1920 5400 c 0
 1920 5016 1624 4720 1240 4720 c 0
 856 4720 560 5016 560 5400 c 0
760 3520 m 1
 200 3520 l 1
 200 3680 l 1
 1880 3680 l 1
 1880 0 l 1
 760 0 l 1
 760 3520 l 1
EndSplineSet
EndChar

StartChar: j
Encoding: 106 106 47
GlifName: j
Width: 2616
VWidth: 9240
Flags: HMW
LayerCount: 2
Fore
SplineSet
696 5400 m 0
 696 5784 992 6080 1376 6080 c 0
 1760 6080 2056 5784 2056 5400 c 0
 2056 5016 1760 4720 1376 4720 c 0
 992 4720 696 5016 696 5400 c 0
2000 3680 m 1
 2000 -96 l 2
 2000 -1144 1384 -2080 264 -2080 c 0
 -464 -2080 -960 -1680 -960 -1152 c 0
 -960 -752 -656 -472 -304 -472 c 0
 16 -472 344 -664 344 -1064 c 0
 344 -1448 56 -1672 -360 -1672 c 0
 -392 -1672 -424 -1664 -424 -1664 c 1
 -376 -1728 -168 -1904 184 -1904 c 0
 1024 -1904 880 -856 880 160 c 2
 880 3520 l 1
 160 3520 l 1
 160 3680 l 1
 2000 3680 l 1
EndSplineSet
EndChar

StartChar: k
Encoding: 107 107 48
GlifName: k
Width: 5128
VWidth: 9240
Flags: HMW
LayerCount: 2
Fore
SplineSet
4744 0 m 1
 3360 0 l 1
 1776 2128 l 1
 3952 3680 l 1
 4216 3680 l 1
 2768 2592 l 1
 4744 0 l 1
2792 160 m 1
 5048 160 l 1
 5048 0 l 1
 2792 0 l 1
 2792 160 l 1
4656 3520 m 1
 2872 3520 l 1
 2872 3680 l 1
 4656 3680 l 1
 4656 3520 l 1
160 160 m 1
 2440 160 l 1
 2440 0 l 1
 160 0 l 1
 160 160 l 1
880 5840 m 1
 160 5840 l 1
 160 6000 l 1
 2000 6000 l 1
 2000 0 l 1
 880 0 l 1
 880 5840 l 1
EndSplineSet
EndChar

StartChar: l
Encoding: 108 108 49
GlifName: l
Width: 2880
VWidth: 9240
Flags: HMW
LayerCount: 2
Fore
SplineSet
160 160 m 1
 2720 160 l 1
 2720 0 l 1
 160 0 l 1
 160 160 l 1
880 5840 m 1
 160 5840 l 1
 160 6000 l 1
 2000 6000 l 1
 2000 0 l 1
 880 0 l 1
 880 5840 l 1
EndSplineSet
EndChar

StartChar: m
Encoding: 109 109 50
GlifName: m
Width: 7120
VWidth: 9240
Flags: HMW
LayerCount: 2
Fore
SplineSet
4120 2552 m 2
 4120 0 l 1
 3000 0 l 1
 3000 2464 l 2
 3000 3136 2936 3424 2632 3424 c 0
 2152 3424 1840 2608 1840 1784 c 1
 1720 1784 l 1
 1720 2600 1920 3760 3064 3760 c 0
 3840 3760 4120 3248 4120 2552 c 2
160 160 m 1
 2256 160 l 1
 2256 0 l 1
 160 0 l 1
 160 160 l 1
2576 160 m 1
 4544 160 l 1
 4544 0 l 1
 2576 0 l 1
 2576 160 l 1
4864 160 m 1
 6960 160 l 1
 6960 0 l 1
 4864 0 l 1
 4864 160 l 1
720 3520 m 1
 160 3520 l 1
 160 3680 l 1
 1840 3680 l 1
 1840 0 l 1
 720 0 l 1
 720 3520 l 1
6400 2552 m 2
 6400 0 l 1
 5280 0 l 1
 5280 2464 l 2
 5280 3136 5176 3424 4872 3424 c 0
 4368 3424 4120 2608 4120 1784 c 1
 4000 1784 l 1
 4000 2600 4096 3760 5304 3760 c 0
 6080 3760 6400 3248 6400 2552 c 2
EndSplineSet
EndChar

StartChar: n
Encoding: 110 110 51
GlifName: n
Width: 5000
VWidth: 9240
Flags: HMW
LayerCount: 2
Fore
SplineSet
3160 2464 m 2
 3160 3136 3024 3376 2688 3376 c 0
 2224 3376 1840 2608 1840 1784 c 1
 1720 1784 l 1
 1720 2600 2000 3760 3144 3760 c 0
 4000 3760 4280 3248 4280 2552 c 2
 4280 0 l 1
 3160 0 l 1
 3160 2464 l 2
2720 160 m 1
 4840 160 l 1
 4840 0 l 1
 2720 0 l 1
 2720 160 l 1
160 160 m 1
 2280 160 l 1
 2280 0 l 1
 160 0 l 1
 160 160 l 1
720 3520 m 1
 160 3520 l 1
 160 3680 l 1
 1840 3680 l 1
 1840 0 l 1
 720 0 l 1
 720 3520 l 1
EndSplineSet
EndChar

StartChar: o
Encoding: 111 111 52
GlifName: o
Width: 4464
VWidth: 9240
Flags: HMW
LayerCount: 2
Fore
SplineSet
1480 1840 m 0
 1480 888 1640 80 2232 80 c 0
 2824 80 2984 888 2984 1840 c 0
 2984 2792 2824 3600 2232 3600 c 0
 1640 3600 1480 2792 1480 1840 c 0
280 1840 m 0
 280 2880 1024 3760 2232 3760 c 0
 3440 3760 4184 2880 4184 1840 c 0
 4184 800 3440 -80 2232 -80 c 0
 1024 -80 280 800 280 1840 c 0
EndSplineSet
EndChar

StartChar: p
Encoding: 112 112 53
GlifName: p
Width: 5064
VWidth: 9240
Flags: HMW
LayerCount: 2
Fore
SplineSet
1720 1840 m 0
 1720 3056 2200 3752 3088 3752 c 0
 3960 3752 4784 3040 4784 1840 c 0
 4784 640 3960 -80 3088 -80 c 0
 2200 -80 1720 624 1720 1840 c 0
1840 1840 m 0
 1840 688 2392 176 2768 176 c 0
 3280 176 3504 768 3504 1840 c 0
 3504 2912 3296 3488 2784 3488 c 0
 2376 3488 1840 2992 1840 1840 c 0
160 -1840 m 1
 2400 -1840 l 1
 2400 -2000 l 1
 160 -2000 l 1
 160 -1840 l 1
720 3520 m 1
 160 3520 l 1
 160 3680 l 1
 1840 3680 l 1
 1840 -2000 l 1
 720 -2000 l 1
 720 3520 l 1
EndSplineSet
EndChar

StartChar: q
Encoding: 113 113 54
GlifName: q
Width: 5064
VWidth: 9240
Flags: HMW
LayerCount: 2
Fore
SplineSet
3344 1840 m 0
 3344 624 2864 -80 1976 -80 c 0
 1104 -80 280 640 280 1840 c 0
 280 3040 1104 3752 1976 3752 c 0
 2864 3752 3344 3056 3344 1840 c 0
3224 1840 m 0
 3224 2992 2680 3488 2272 3488 c 0
 1800 3488 1560 2912 1560 1840 c 0
 1560 768 1800 224 2272 224 c 0
 2760 224 3224 688 3224 1840 c 0
4904 -1840 m 1
 4904 -2000 l 1
 2664 -2000 l 1
 2664 -1840 l 1
 4904 -1840 l 1
4904 3680 m 1
 4904 3520 l 1
 4344 3520 l 1
 4344 -2000 l 1
 3224 -2000 l 1
 3224 3680 l 1
 4904 3680 l 1
EndSplineSet
EndChar

StartChar: r
Encoding: 114 114 55
GlifName: r
Width: 3848
VWidth: 9240
Flags: HMW
LayerCount: 2
Fore
SplineSet
3184 3520 m 1
 3088 3576 2960 3584 2840 3584 c 0
 2080 3584 1840 2568 1840 1784 c 1
 1720 1784 l 1
 1720 2760 1912 3760 2880 3760 c 0
 3328 3760 3776 3424 3776 2912 c 0
 3776 2544 3536 2224 3112 2224 c 0
 2728 2224 2440 2464 2440 2864 c 0
 2440 3256 2776 3520 3184 3520 c 1
160 160 m 1
 2400 160 l 1
 2400 0 l 1
 160 0 l 1
 160 160 l 1
720 3520 m 1
 160 3520 l 1
 160 3680 l 1
 1840 3680 l 1
 1840 0 l 1
 720 0 l 1
 720 3520 l 1
EndSplineSet
EndChar

StartChar: s
Encoding: 115 115 56
GlifName: s
Width: 3600
VWidth: 9240
Flags: HMW
LayerCount: 2
Fore
SplineSet
2928 2896 m 1
 2520 3368 l 1
 2976 3760 l 1
 3096 3760 l 1
 3096 2640 l 1
 2936 2640 l 1
 2928 2896 l 1
3056 2640 m 1
 2936 2640 l 1
 2736 3064 2312 3576 1664 3576 c 0
 1400 3576 960 3448 960 3048 c 0
 960 2368 3360 2680 3360 1176 c 0
 3360 344 2648 -80 1912 -80 c 0
 1120 -80 560 416 360 1160 c 1
 480 1160 l 1
 760 536 1264 96 1832 96 c 0
 2272 96 2736 248 2736 656 c 0
 2736 1432 416 1032 416 2600 c 0
 416 3232 896 3752 1656 3752 c 0
 2440 3752 2896 3168 3056 2640 c 1
440 -80 m 1
 320 -80 l 1
 320 1160 l 1
 480 1160 l 1
 480 896 l 1
 896 352 l 1
 440 -80 l 1
EndSplineSet
EndChar

StartChar: t
Encoding: 116 116 57
GlifName: t
Width: 2920
VWidth: 9240
Flags: HMW
LayerCount: 2
Fore
SplineSet
80 3680 m 1
 2640 3680 l 1
 2640 3520 l 1
 80 3520 l 1
 80 3680 l 1
2880 816 m 1
 2688 304 2240 -56 1592 -56 c 0
 816 -56 664 368 664 928 c 2
 664 4480 l 1
 1024 4480 1504 4560 1784 4720 c 1
 1784 816 l 2
 1784 416 1872 272 2088 272 c 0
 2312 272 2592 520 2736 872 c 1
 2880 816 l 1
EndSplineSet
EndChar

StartChar: u
Encoding: 117 117 58
GlifName: u
Width: 5000
VWidth: 9240
Flags: HMW
LayerCount: 2
Fore
SplineSet
1840 3680 m 1
 1840 1216 l 2
 1840 544 1968 304 2304 304 c 0
 2768 304 3160 1072 3160 1896 c 1
 3280 1896 l 1
 3280 1080 3000 -80 1856 -80 c 0
 1000 -80 720 432 720 1128 c 2
 720 3520 l 1
 160 3520 l 1
 160 3680 l 1
 1840 3680 l 1
4280 160 m 1
 4840 160 l 1
 4840 0 l 1
 3160 0 l 1
 3160 3520 l 1
 2640 3520 l 1
 2640 3680 l 1
 4280 3680 l 1
 4280 160 l 1
EndSplineSet
EndChar

StartChar: v
Encoding: 118 118 59
GlifName: v
Width: 4592
VWidth: 9240
Flags: HMW
LayerCount: 2
Fore
SplineSet
4592 3520 m 1
 3040 3520 l 1
 3040 3680 l 1
 4592 3680 l 1
 4592 3520 l 1
2408 3520 m 1
 0 3520 l 1
 0 3680 l 1
 2408 3680 l 1
 2408 3520 l 1
2752 960 m 1
 3824 3680 l 1
 4040 3680 l 1
 2536 -80 l 1
 2064 -80 l 1
 520 3680 l 1
 1760 3680 l 1
 2752 960 l 1
EndSplineSet
EndChar

StartChar: w
Encoding: 119 119 60
GlifName: w
Width: 6600
VWidth: 9240
Flags: HMW
LayerCount: 2
Fore
SplineSet
2448 3520 m 1
 0 3520 l 1
 0 3680 l 1
 2448 3680 l 1
 2448 3520 l 1
6600 3520 m 1
 4888 3520 l 1
 4888 3680 l 1
 6600 3680 l 1
 6600 3520 l 1
2464 1032 m 1
 3520 3760 l 1
 4160 3760 l 1
 4944 1192 l 1
 5768 3680 l 1
 5968 3680 l 1
 4712 -80 l 1
 4232 -80 l 1
 3288 2640 l 1
 2224 -80 l 1
 1744 -80 l 1
 520 3680 l 1
 1712 3680 l 1
 2464 1032 l 1
EndSplineSet
EndChar

StartChar: x
Encoding: 120 120 61
GlifName: x
Width: 4632
VWidth: 9240
Flags: HMW
LayerCount: 2
Fore
SplineSet
2264 160 m 1
 4552 160 l 1
 4552 0 l 1
 2264 0 l 1
 2264 160 l 1
80 160 m 1
 1632 160 l 1
 1632 0 l 1
 80 0 l 1
 80 160 l 1
2448 3520 m 1
 120 3520 l 1
 120 3680 l 1
 2448 3680 l 1
 2448 3520 l 1
4448 3520 m 1
 2976 3520 l 1
 2976 3680 l 1
 4448 3680 l 1
 4448 3520 l 1
4192 0 m 1
 2872 0 l 1
 560 3680 l 1
 1840 3680 l 1
 4192 0 l 1
704 0 m 1
 480 0 l 1
 3744 3680 l 1
 3968 3680 l 1
 704 0 l 1
EndSplineSet
EndChar

StartChar: y
Encoding: 121 121 62
GlifName: y
Width: 4784
VWidth: 9240
Flags: HMW
LayerCount: 2
Fore
SplineSet
2648 3520 m 1
 -40 3520 l 1
 -40 3680 l 1
 2648 3680 l 1
 2648 3520 l 1
4864 3520 m 1
 3344 3520 l 1
 3344 3680 l 1
 4864 3680 l 1
 4864 3520 l 1
3112 1064 m 1
 2440 -176 l 1
 472 3680 l 1
 1792 3680 l 1
 3112 1064 l 1
1832 -1288 m 1
 4216 3680 l 1
 4432 3680 l 1
 1936 -1504 l 2
 1760 -1856 1560 -2064 1216 -2064 c 0
 896 -2064 576 -1848 576 -1464 c 0
 576 -1120 840 -832 1216 -832 c 0
 1544 -832 1768 -1072 1832 -1288 c 1
EndSplineSet
EndChar

StartChar: z
Encoding: 122 122 63
GlifName: z
Width: 3840
VWidth: 9240
Flags: HMW
LayerCount: 2
Fore
SplineSet
1648 3520 m 2
 896 3520 624 3112 504 2304 c 1
 344 2304 l 1
 344 3680 l 1
 3552 3680 l 1
 3552 3520 l 1
 1384 160 l 1
 2192 160 l 2
 3128 160 3400 480 3520 1472 c 1
 3680 1472 l 1
 3680 0 l 1
 120 0 l 1
 120 160 l 1
 2280 3520 l 1
 1648 3520 l 2
EndSplineSet
EndChar

StartChar: comma
Encoding: 44 44 65
GlifName: comma
Width: 2200
Flags: HMW
LayerCount: 2
Fore
SplineSet
320 632 m 0
 320 1016 672 1344 1096 1344 c 0
 1528 1344 1896 976 1896 272 c 0
 1896 -528 1264 -1248 304 -1248 c 1
 304 -1088 l 1
 1040 -1088 1672 -648 1728 336 c 1
 1552 40 1240 -80 984 -80 c 0
 600 -80 320 248 320 632 c 0
EndSplineSet
EndChar

StartChar: exclam
Encoding: 33 33 67
GlifName: exclam
Width: 3040
Flags: HMW
LayerCount: 2
Fore
SplineSet
2224 5112 m 0
 2136 3944 1592 3064 1592 2064 c 1
 1432 2064 l 1
 1432 3064 888 3944 800 5112 c 0
 800 5168 800 5216 800 5264 c 0
 800 5712 1016 6064 1512 6064 c 0
 2008 6064 2232 5712 2232 5264 c 0
 2232 5216 2224 5168 2224 5112 c 0
EndSplineSet
Refer: 1 46 N 1 0 0 1 480 0 2
EndChar

StartChar: quotesingle
Encoding: 39 39 70
GlifName: quotesingle
Width: 2080
Flags: HMW
LayerCount: 2
Fore
SplineSet
1672 5288 m 24
 1584 4688 1120 4504 1120 3624 c 1
 960 3624 l 1
 960 4504 496 4688 408 5288 c 24
 400 5344 400 5384 400 5432 c 0
 400 5824 688 6080 1040 6080 c 0
 1392 6080 1680 5824 1680 5432 c 0
 1680 5384 1680 5344 1672 5288 c 24
EndSplineSet
EndChar

StartChar: question
Encoding: 63 63 75
GlifName: question
Width: 4680
Flags: HMW
LayerCount: 2
Fore
SplineSet
1936 2872 m 1
 2672 3120 2992 3736 2992 4480 c 0
 2992 5232 2840 5872 2048 5872 c 0
 1456 5872 936 5432 816 5128 c 1
 848 5136 952 5200 1120 5200 c 0
 1472 5200 1792 4984 1792 4600 c 0
 1792 4184 1496 3952 1136 3952 c 0
 736 3952 480 4216 480 4648 c 0
 480 5344 1232 6080 2288 6080 c 0
 3496 6080 4280 5440 4280 4480 c 0
 4280 3560 3424 2840 2096 2768 c 1
 2096 1952 l 1
 1936 1952 l 1
 1936 2872 l 1
EndSplineSet
Refer: 1 46 N 1 0 0 1 1112 0 2
EndChar

StartChar: parenleft
Encoding: 40 40 76
GlifName: parenleft
Width: 2976
Flags: HMW
LayerCount: 2
Fore
SplineSet
2896 -1224 m 1
 2824 -1360 l 1
 1520 -800 520 736 520 2600 c 0
 520 4464 1520 5840 2824 6400 c 1
 2896 6264 l 1
 2104 5744 1760 4136 1760 2600 c 0
 1760 1064 2104 -704 2896 -1224 c 1
EndSplineSet
EndChar

StartChar: at
Encoding: 64 64 79
GlifName: at
Width: 8080
VWidth: 9240
Flags: HMW
LayerCount: 2
Fore
SplineSet
4736 2848 m 0
 4736 1552 4112 560 3192 560 c 0
 2480 560 1952 1008 1952 1840 c 0
 1952 3040 2832 4232 3904 4232 c 0
 4592 4232 4736 3504 4736 2848 c 0
4608 2768 m 0
 4608 3104 4560 3864 4208 3864 c 0
 3776 3864 3240 2912 3240 1920 c 0
 3240 1384 3360 936 3712 936 c 0
 4080 936 4608 1744 4608 2768 c 0
4440 1680 m 2
 5016 4160 l 1
 6216 4160 l 1
 5640 1680 l 2
 5584 1432 5352 792 5808 792 c 0
 6672 792 7480 1976 7480 3208 c 0
 7480 4624 6624 6160 4672 6160 c 0
 2440 6160 600 4104 600 1688 c 0
 600 -688 1960 -1552 3352 -1552 c 0
 4664 -1552 5440 -1176 6160 -392 c 1
 6280 -512 l 1
 5608 -1296 4656 -1712 3352 -1712 c 0
 1888 -1712 440 -816 440 1688 c 0
 440 4192 2336 6320 4680 6320 c 0
 6704 6320 7640 4672 7640 3208 c 0
 7640 1888 6896 544 5408 544 c 0
 4456 544 4328 1184 4440 1680 c 2
EndSplineSet
EndChar

StartChar: dollar
Encoding: 36 36 80
GlifName: dollar
Width: 4760
Flags: HMW
LayerCount: 2
Fore
SplineSet
2480 6640 m 1
 2680 6640 l 1
 2680 -640 l 1
 2480 -640 l 1
 2480 6640 l 1
1840 6640 m 1
 2040 6640 l 1
 2040 -640 l 1
 1840 -640 l 1
 1840 6640 l 1
3816 5248 m 1
 3648 5552 3128 5896 2416 5896 c 0
 1728 5896 1280 5552 1280 5000 c 0
 1280 3640 4440 4040 4440 1760 c 0
 4440 640 3648 -120 2400 -120 c 0
 952 -120 224 640 224 1240 c 0
 224 1688 488 2016 920 2016 c 0
 1240 2016 1552 1760 1552 1328 c 0
 1552 928 1168 728 856 728 c 0
 728 728 608 760 560 784 c 1
 848 480 1288 56 2320 56 c 0
 3168 56 3600 488 3600 1160 c 0
 3600 2680 440 2120 440 4440 c 0
 440 5440 1408 6080 2376 6080 c 0
 3280 6080 4200 5568 4200 4840 c 0
 4200 4392 3952 4104 3520 4104 c 0
 3200 4104 2888 4320 2888 4736 c 0
 2888 5120 3192 5352 3504 5352 c 0
 3592 5352 3720 5312 3816 5248 c 1
EndSplineSet
EndChar

StartChar: numbersign
Encoding: 35 35 81
GlifName: numbersign
Width: 5040
Flags: HMW
LayerCount: 2
Fore
SplineSet
240 2120 m 1
 4560 2120 l 1
 4560 1960 l 1
 240 1960 l 1
 240 2120 l 1
480 4160 m 1
 4800 4160 l 1
 4800 4000 l 1
 480 4000 l 1
 480 4160 l 1
3600 6032 m 1
 3760 6040 l 1
 2960 -40 l 1
 2800 -48 l 1
 3600 6032 l 1
2000 6040 m 1
 2160 6040 l 1
 1360 -40 l 1
 1200 -40 l 1
 2000 6040 l 1
EndSplineSet
EndChar

StartChar: slash
Encoding: 47 47 82
GlifName: slash
Width: 4160
Flags: HMW
LayerCount: 2
Fore
SplineSet
3680 6240 m 1
 3840 6240 l 1
 480 -1200 l 1
 320 -1200 l 1
 3680 6240 l 1
EndSplineSet
EndChar

StartChar: percent
Encoding: 37 37 83
GlifName: percent
Width: 8160
Flags: HMW
LayerCount: 2
Fore
SplineSet
5600 1680 m 0
 5600 664 5728 80 6120 80 c 0
 6512 80 6640 664 6640 1680 c 0
 6640 2696 6512 3280 6120 3280 c 0
 5728 3280 5600 2696 5600 1680 c 0
4360 1680 m 0
 4360 2824 5216 3440 6120 3440 c 0
 7024 3440 7880 2824 7880 1680 c 0
 7880 536 6864 -80 6120 -80 c 0
 5216 -80 4360 536 4360 1680 c 0
6000 6000 m 1
 6200 6000 l 1
 2160 0 l 1
 1960 0 l 1
 6000 6000 l 1
1520 4320 m 0
 1520 3304 1648 2720 2040 2720 c 0
 2432 2720 2560 3304 2560 4320 c 0
 2560 5336 2432 5920 2040 5920 c 0
 1648 5920 1520 5336 1520 4320 c 0
280 4320 m 0
 280 5464 1136 6080 2040 6080 c 0
 2944 6080 3800 5464 3800 4320 c 0
 3800 3176 2784 2560 2040 2560 c 0
 1136 2560 280 3176 280 4320 c 0
EndSplineSet
EndChar

StartChar: hyphen
Encoding: 45 45 85
GlifName: hyphen
Width: 2880
Flags: HMW
LayerCount: 2
Fore
SplineSet
480 2280 m 1
 2400 2280 l 1
 2400 2120 l 1
 480 2120 l 1
 480 2280 l 1
EndSplineSet
EndChar

StartChar: plus
Encoding: 43 43 87
GlifName: plus
Width: 4240
Flags: HMW
LayerCount: 2
Fore
SplineSet
2040 880 m 1
 2040 4160 l 1
 2200 4160 l 1
 2200 880 l 1
 2040 880 l 1
480 2608 m 1
 3760 2608 l 1
 3760 2448 l 1
 480 2448 l 1
 480 2608 l 1
EndSplineSet
EndChar

StartChar: less
Encoding: 60 60 89
GlifName: less
Width: 4480
Flags: HMW
LayerCount: 2
Fore
SplineSet
480 3040 m 1
 480 3200 l 1
 4000 4800 l 1
 4000 4640 l 1
 480 3040 l 1
480 3000 m 1
 480 3160 l 1
 4000 1560 l 1
 4000 1400 l 1
 480 3000 l 1
EndSplineSet
EndChar

StartChar: backslash
Encoding: 92 92 91
GlifName: backslash
Width: 4160
Flags: HMW
LayerCount: 2
Fore
SplineSet
520 6240 m 1
 3840 -1200 l 1
 3640 -1200 l 1
 320 6240 l 1
 520 6240 l 1
EndSplineSet
EndChar

StartChar: bracketleft
Encoding: 91 91 92
GlifName: bracketleft
Width: 2840
Flags: HMW
LayerCount: 2
Fore
SplineSet
2600 -1200 m 1
 440 -1200 l 1
 440 -1040 l 1
 2600 -1040 l 1
 2600 -1200 l 1
2600 6080 m 1
 440 6080 l 1
 440 6240 l 1
 2600 6240 l 1
 2600 6080 l 1
1640 6240 m 1
 1640 -1200 l 1
 440 -1200 l 1
 440 6240 l 1
 1640 6240 l 1
EndSplineSet
EndChar

StartChar: braceleft
Encoding: 123 123 93
GlifName: braceleft
Width: 2656
VWidth: 9240
Flags: HMW
LayerCount: 2
Fore
SplineSet
2416 6240 m 1
 2416 6080 l 1
 1920 6080 1664 5680 1664 5176 c 0
 1664 4648 1936 4288 1936 3568 c 0
 1936 2904 1512 2640 440 2480 c 1
 440 2600 l 1
 680 2680 920 2840 920 3168 c 0
 920 3672 440 4032 440 5048 c 0
 440 5840 896 6240 2416 6240 c 1
2416 -1200 m 1
 896 -1200 440 -792 440 0 c 0
 440 1016 920 1376 920 1880 c 0
 920 2208 680 2360 440 2440 c 1
 440 2560 l 1
 1512 2400 1936 2144 1936 1480 c 0
 1936 760 1664 400 1664 -128 c 0
 1664 -632 1920 -1040 2416 -1040 c 1
 2416 -1200 l 1
EndSplineSet
EndChar

StartChar: bar
Encoding: 124 124 96
GlifName: bar
Width: 1840
VWidth: 9240
Flags: HMW
LayerCount: 2
Fore
SplineSet
840 6240 m 1
 1000 6240 l 1
 1000 -2000 l 1
 840 -2000 l 1
 840 6240 l 1
EndSplineSet
EndChar

StartChar: cent
Encoding: 162 162 98
GlifName: cent
Width: 4168
VWidth: 9240
Flags: HMW
LayerCount: 2
Fore
SplineSet
2408 4440 m 1
 2408 -680 l 1
 2248 -680 l 1
 2248 4440 l 1
 2408 4440 l 1
EndSplineSet
Refer: 40 99 N 1 0 0 1 0 0 2
EndChar

StartChar: sterling
Encoding: 163 163 99
GlifName: sterling
Width: 5248
VWidth: 9240
Flags: HMW
LayerCount: 2
Fore
SplineSet
5056 1736 m 1
 5056 176 4488 -240 3576 -240 c 0
 2480 -240 2000 240 1496 240 c 0
 1168 240 816 80 736 -160 c 1
 648 -160 l 1
 768 432 1392 1256 2176 1256 c 0
 2896 1256 3216 984 3744 984 c 0
 4248 984 4896 1080 4896 1736 c 1
 5056 1736 l 1
3720 3240 m 1
 3720 3080 l 1
 120 3080 l 1
 120 3240 l 1
 3720 3240 l 1
784 4400 m 0
 784 5520 1664 6080 3072 6080 c 0
 4368 6080 5056 5328 5056 4672 c 0
 5056 4224 4768 3912 4384 3912 c 0
 4024 3912 3648 4160 3648 4600 c 0
 3648 5000 3992 5280 4344 5280 c 0
 4480 5280 4568 5240 4600 5232 c 1
 4480 5448 4024 5872 3312 5872 c 0
 2480 5872 2152 5352 2152 4680 c 0
 2152 3888 2600 3520 2600 2840 c 0
 2600 1360 632 1360 736 -160 c 1
 576 -160 l 1
 424 952 1432 1576 1432 2088 c 0
 1432 3000 784 3480 784 4400 c 0
EndSplineSet
EndChar

StartChar: section
Encoding: 167 167 101
GlifName: section
Width: 3808
VWidth: 9240
Flags: HMW
LayerCount: 2
Fore
SplineSet
1080 5216 m 0
 1080 4328 3504 4328 3504 3104 c 0
 3504 2528 3048 2328 2656 2080 c 1
 2528 2096 l 1
 2640 2232 2816 2360 2816 2640 c 0
 2816 3528 536 3328 536 4784 c 0
 536 5616 1240 6080 2000 6080 c 0
 2664 6080 3472 5808 3472 4960 c 0
 3472 4592 3224 4304 2864 4304 c 0
 2544 4304 2320 4552 2320 4880 c 0
 2320 5176 2584 5424 2896 5424 c 0
 3016 5424 3120 5368 3152 5360 c 1
 2944 5696 2536 5912 2000 5912 c 0
 1536 5912 1080 5640 1080 5216 c 0
3488 1296 m 0
 3488 464 2832 -80 1832 -80 c 0
 1128 -80 240 200 240 1048 c 0
 240 1416 480 1704 840 1704 c 0
 1160 1704 1392 1464 1392 1136 c 0
 1392 840 1144 608 832 608 c 0
 712 608 600 664 568 672 c 1
 792 288 1296 88 1832 88 c 0
 2576 88 2888 464 2888 808 c 0
 2888 1696 384 1616 384 2800 c 0
 384 3416 856 3752 1168 3960 c 1
 1320 3960 l 1
 1288 3864 1112 3696 1112 3376 c 0
 1112 2488 3488 2752 3488 1296 c 0
EndSplineSet
EndChar

StartChar: asciitilde
Encoding: 126 126 104
GlifName: asciitilde
Width: 5504
VWidth: 9240
Flags: HMW
LayerCount: 2
Fore
SplineSet
1664 3376 m 0
 1240 3376 960 3200 960 2744 c 1
 800 2744 l 1
 800 3664 1280 4200 1992 4200 c 0
 2872 4200 2992 3448 3760 3448 c 0
 4264 3448 4544 3624 4544 4080 c 1
 4704 4080 l 1
 4704 3160 4224 2624 3512 2624 c 0
 2496 2624 2488 3376 1664 3376 c 0
EndSplineSet
EndChar

StartChar: copyright
Encoding: 169 169 105
GlifName: copyright
Width: 6960
Flags: HMW
LayerCount: 2
Fore
SplineSet
400 3000 m 0
 400 4704 1776 6080 3480 6080 c 0
 5184 6080 6560 4704 6560 3000 c 0
 6560 1296 5184 -80 3480 -80 c 0
 1776 -80 400 1296 400 3000 c 0
560 3000 m 0
 560 1392 1872 80 3480 80 c 0
 5088 80 6400 1392 6400 3000 c 0
 6400 4608 5088 5920 3480 5920 c 0
 1872 5920 560 4608 560 3000 c 0
EndSplineSet
Refer: 14 67 N 0.6 0 0 0.6 1616 1200 2
EndChar

StartChar: registered
Encoding: 174 174 106
GlifName: registered
Width: 6960
Flags: HMW
LayerCount: 2
Fore
SplineSet
400 3000 m 0
 400 4704 1776 6080 3480 6080 c 0
 5184 6080 6560 4704 6560 3000 c 0
 6560 1296 5184 -80 3480 -80 c 0
 1776 -80 400 1296 400 3000 c 0
560 3000 m 0
 560 1392 1872 80 3480 80 c 0
 5088 80 6400 1392 6400 3000 c 0
 6400 4608 5088 5920 3480 5920 c 0
 1872 5920 560 4608 560 3000 c 0
EndSplineSet
Refer: 29 82 S 0.6 0 0 0.6 1784 1184 2
EndChar

StartChar: logicalnot
Encoding: 172 172 107
GlifName: logicalnot
Width: 3888
Flags: HMW
LayerCount: 2
Fore
SplineSet
3248 4760 m 1
 480 4760 l 1
 480 4920 l 1
 3408 4920 l 1
 3408 3304 l 1
 3248 3304 l 1
 3248 4760 l 1
EndSplineSet
EndChar

StartChar: guillemotleft
Encoding: 171 171 108
GlifName: guillemotleft
Width: 5800
Flags: HMW
LayerCount: 2
Fore
SplineSet
3928 3104 m 1
 5400 1240 l 1
 5320 1160 l 1
 2440 3000 l 1
 2440 3200 l 1
 5320 5040 l 1
 5400 4960 l 1
 3928 3104 l 1
1608 3104 m 1
 3160 1240 l 1
 3080 1160 l 1
 200 3000 l 1
 200 3200 l 1
 3080 5040 l 1
 3160 4960 l 1
 1608 3104 l 1
EndSplineSet
EndChar

StartChar: mu
Encoding: 181 181 111
GlifName: mu
Width: 5000
VWidth: 9240
Flags: HMW
LayerCount: 2
Fore
SplineSet
2088 -984 m 0
 2352 -984 2560 -1216 2560 -1520 c 0
 2560 -1832 2392 -2080 1808 -2080 c 0
 1248 -2080 768 -1688 768 -968 c 2
 768 2568 l 1
 928 2568 l 1
 928 -968 l 2
 928 -1624 1304 -1904 1832 -1952 c 1
 1832 -1952 l 1
 1616 -1768 1616 -1552 1616 -1408 c 0
 1616 -1144 1824 -984 2088 -984 c 0
EndSplineSet
Refer: 58 117 N 1 0 0 1 0 0 2
EndChar

StartChar: asciicircum
Encoding: 94 94 113
GlifName: asciicircum
Width: 4360
Flags: HMW
LayerCount: 2
Fore
SplineSet
2176 5784 m 1
 880 4960 l 1
 800 5040 l 1
 1920 6160 l 1
 2440 6160 l 1
 3560 5040 l 1
 3480 4960 l 1
 2176 5784 l 1
EndSplineSet
EndChar

StartChar: degree
Encoding: 176 176 115
GlifName: degree
Width: 2560
Flags: HMW
LayerCount: 2
Fore
SplineSet
320 5440 m 0
 320 5968 752 6400 1280 6400 c 0
 1808 6400 2240 5968 2240 5440 c 0
 2240 4912 1808 4480 1280 4480 c 0
 752 4480 320 4912 320 5440 c 0
760 5440 m 0
 760 5144 984 4920 1280 4920 c 0
 1576 4920 1800 5144 1800 5440 c 0
 1800 5736 1576 5960 1280 5960 c 0
 984 5960 760 5736 760 5440 c 0
EndSplineSet
EndChar

StartChar: onequarter
Encoding: 188 188 119
GlifName: onequarter
Width: 5368
Flags: HMW
LayerCount: 2
Fore
SplineSet
4048 5200 m 1
 4208 5200 l 1
 480 -800 l 1
 320 -800 l 1
 4048 5200 l 1
EndSplineSet
Refer: 6 52 N 0.6 0 0 0.6 2160 -824 2
Refer: 3 49 N 0.6 0 0 0.6 -64 2848 2
EndChar

StartChar: onehalf
Encoding: 189 189 120
GlifName: onehalf
Width: 5600
Flags: HMW
LayerCount: 2
Fore
SplineSet
4048 5200 m 1
 4208 5200 l 1
 480 -800 l 1
 320 -800 l 1
 4048 5200 l 1
EndSplineSet
Refer: 4 50 N 0.6 0 0 0.6 2728 -808 2
Refer: 3 49 N 0.6 0 0 0.6 -64 2848 2
EndChar

StartChar: threequarters
Encoding: 190 190 121
GlifName: threequarters
Width: 5848
Flags: HMW
LayerCount: 2
Fore
SplineSet
4528 5200 m 1
 4688 5200 l 1
 960 -800 l 1
 800 -800 l 1
 4528 5200 l 1
EndSplineSet
Refer: 5 51 N 0.6 0 0 0.6 40 2832 2
Refer: 6 52 N 0.6 0 0 0.6 2640 -824 2
EndChar

StartChar: grave
Encoding: 96 96 123
GlifName: grave
Width: 3280
Flags: HMW
LayerCount: 2
Fore
SplineSet
960 5600 m 2
 688 5568 440 5768 440 6040 c 0
 440 6312 728 6576 1040 6464 c 2
 2832 5880 l 1
 2800 5720 l 1
 960 5600 l 2
EndSplineSet
EndChar

StartChar: acute
Encoding: 180 180 124
GlifName: acute
Width: 3280
Flags: HMW
LayerCount: 2
Fore
SplineSet
2320 5600 m 2
 480 5720 l 1
 448 5880 l 1
 2240 6464 l 2
 2552 6576 2840 6312 2840 6040 c 0
 2840 5768 2592 5568 2320 5600 c 2
EndSplineSet
EndChar

StartChar: cedilla
Encoding: 184 184 128
GlifName: cedilla
Width: 4400
Flags: HMW
LayerCount: 2
Fore
SplineSet
2472 -1120 m 0
 2472 -696 2136 -632 1736 -632 c 1
 2456 328 l 1
 2680 328 l 1
 2200 -312 l 1
 2896 -336 3360 -512 3360 -960 c 0
 3360 -1360 2976 -1760 1768 -1760 c 1
 1768 -1600 l 1
 2240 -1600 2472 -1392 2472 -1120 c 0
EndSplineSet
EndChar

StartChar: ring
Encoding: 730 730 271
GlifName: ring
Width: 2560
VWidth: 0
Flags: HMW
LayerCount: 2
Fore
SplineSet
480 5440 m 0
 480 5848 792 6160 1280 6160 c 0
 1768 6160 2080 5848 2080 5440 c 0
 2080 5032 1768 4720 1280 4720 c 0
 792 4720 480 5032 480 5440 c 0
960 5440 m 0
 960 5064 1064 4880 1280 4880 c 0
 1496 4880 1600 5064 1600 5440 c 0
 1600 5816 1496 6000 1280 6000 c 0
 1064 6000 960 5816 960 5440 c 0
EndSplineSet
EndChar

StartChar: tilde
Encoding: 732 732 272
GlifName: tilde
Width: 3584
VWidth: 0
Flags: HMW
LayerCount: 2
Fore
SplineSet
984 5232 m 0
 760 5232 560 5056 560 4760 c 1
 400 4760 l 1
 400 5440 680 5936 1192 5936 c 0
 1832 5936 2112 5304 2600 5304 c 0
 2824 5304 3024 5480 3024 5776 c 1
 3184 5776 l 1
 3184 5016 3064 4600 2472 4600 c 0
 1856 4600 1528 5232 984 5232 c 0
EndSplineSet
EndChar

StartChar: AE
Encoding: 198 198 274
GlifName: A_E_
Width: 8360
Flags: HMW
LayerCount: 2
Fore
SplineSet
4200 6000 m 1
 4384 6000 l 1
 904 0 l 1
 680 0 l 1
 4200 6000 l 1
120 160 m 1
 1880 160 l 1
 1880 0 l 1
 120 0 l 1
 120 160 l 1
1960 2040 m 1
 4280 2040 l 1
 4280 1880 l 1
 1960 1880 l 1
 1960 2040 l 1
4200 6000 m 1
 5440 6000 l 1
 5440 0 l 1
 4200 0 l 1
 4200 6000 l 1
4200 6000 m 1
 8040 6000 l 1
 8040 4360 l 1
 7880 4360 l 1
 7760 5216 7296 5840 6400 5840 c 2
 4200 5840 l 1
 4200 6000 l 1
8120 0 m 1
 3480 0 l 1
 3480 160 l 1
 6320 160 l 2
 7376 160 7840 784 7960 1800 c 1
 8120 1800 l 1
 8120 0 l 1
6640 2104 m 1
 6520 2640 6176 3024 5720 3024 c 2
 5240 3024 l 1
 5240 3184 l 1
 5720 3184 l 2
 6176 3184 6520 3528 6640 4064 c 1
 6800 4064 l 1
 6800 2104 l 1
 6640 2104 l 1
EndSplineSet
EndChar

StartChar: ae
Encoding: 230 230 277
GlifName: ae
Width: 6664
VWidth: 9240
Flags: HMW
LayerCount: 2
Fore
SplineSet
560 2888 m 0
 560 3400 1256 3744 2064 3744 c 0
 3104 3744 3528 3168 3528 2440 c 1
 3488 1448 l 1
 3488 456 2688 -80 1760 -80 c 0
 888 -80 280 232 280 904 c 0
 280 1576 896 2088 2032 2088 c 2
 3264 2088 l 1
 3264 1928 l 1
 2312 1928 l 2
 1824 1928 1496 1536 1496 960 c 0
 1496 424 1680 96 2000 96 c 0
 2336 96 2608 520 2608 1248 c 2
 2608 2440 l 2
 2608 2976 2496 3560 1856 3560 c 0
 1584 3560 1408 3504 1296 3424 c 1
 1520 3408 1848 3280 1848 2904 c 0
 1848 2544 1496 2328 1176 2328 c 0
 816 2328 560 2560 560 2888 c 0
5264 2168 m 1
 5256 2792 5216 3600 4704 3600 c 0
 4152 3600 4000 2832 4000 1920 c 0
 4000 1008 4152 120 4944 120 c 0
 5608 120 6104 560 6304 1144 c 1
 6464 1144 l 1
 6256 448 5688 -80 4720 -80 c 0
 3712 -80 3000 600 3000 1840 c 0
 3000 3080 3696 3760 4704 3760 c 0
 5896 3760 6456 2880 6456 2008 c 1
 3496 2008 l 1
 3496 2168 l 1
 5264 2168 l 1
EndSplineSet
EndChar

StartChar: uni2010
Encoding: 8208 8208 279
GlifName: uni2010
Width: 2880
Flags: HMW
LayerCount: 2
Fore
SplineSet
480 2280 m 1
 2400 2280 l 1
 2400 2120 l 1
 480 2120 l 1
 480 2280 l 1
EndSplineSet
EndChar

StartChar: uni2011
Encoding: 8209 8209 280
GlifName: uni2011
Width: 2296
Flags: HMW
LayerCount: 2
Fore
SplineSet
480 2280 m 1
 1816 2280 l 1
 1816 2120 l 1
 480 2120 l 1
 480 2280 l 1
EndSplineSet
EndChar

StartChar: figuredash
Encoding: 8210 8210 282
GlifName: figuredash
Width: 3560
Flags: HMW
LayerCount: 2
Fore
SplineSet
480 2280 m 1
 3080 2280 l 1
 3080 2120 l 1
 480 2120 l 1
 480 2280 l 1
EndSplineSet
EndChar

StartChar: perthousand
Encoding: 8240 8240 285
GlifName: perthousand
Width: 12080
Flags: HMW
LayerCount: 2
Fore
SplineSet
9520 1680 m 0
 9520 664 9648 80 10040 80 c 0
 10432 80 10560 664 10560 1680 c 0
 10560 2696 10432 3280 10040 3280 c 0
 9648 3280 9520 2696 9520 1680 c 0
8280 1680 m 0
 8280 2824 9136 3440 10040 3440 c 0
 10944 3440 11800 2824 11800 1680 c 0
 11800 536 10784 -80 10040 -80 c 0
 9136 -80 8280 536 8280 1680 c 0
5600 1680 m 0
 5600 664 5728 80 6120 80 c 0
 6512 80 6640 664 6640 1680 c 0
 6640 2696 6512 3280 6120 3280 c 0
 5728 3280 5600 2696 5600 1680 c 0
4360 1680 m 0
 4360 2824 5216 3440 6120 3440 c 0
 7024 3440 7880 2824 7880 1680 c 0
 7880 536 6864 -80 6120 -80 c 0
 5216 -80 4360 536 4360 1680 c 0
6000 6000 m 1
 6200 6000 l 1
 2160 0 l 1
 1960 0 l 1
 6000 6000 l 1
1520 4320 m 0
 1520 3304 1648 2720 2040 2720 c 0
 2432 2720 2560 3304 2560 4320 c 0
 2560 5336 2432 5920 2040 5920 c 0
 1648 5920 1520 5336 1520 4320 c 0
280 4320 m 0
 280 5464 1136 6080 2040 6080 c 0
 2944 6080 3800 5464 3800 4320 c 0
 3800 3176 2784 2560 2040 2560 c 0
 1136 2560 280 3176 280 4320 c 0
EndSplineSet
EndChar

StartChar: uni2031
Encoding: 8241 8241 286
GlifName: uni2031
Width: 16040
Flags: HMW
LayerCount: 2
Fore
SplineSet
13480 1680 m 0
 13480 664 13608 80 14000 80 c 0
 14392 80 14520 664 14520 1680 c 0
 14520 2696 14392 3280 14000 3280 c 0
 13608 3280 13480 2696 13480 1680 c 0
12240 1680 m 0
 12240 2824 13096 3440 14000 3440 c 0
 14904 3440 15760 2824 15760 1680 c 0
 15760 536 14744 -80 14000 -80 c 0
 13096 -80 12240 536 12240 1680 c 0
9520 1680 m 0
 9520 664 9648 80 10040 80 c 0
 10432 80 10560 664 10560 1680 c 0
 10560 2696 10432 3280 10040 3280 c 0
 9648 3280 9520 2696 9520 1680 c 0
8280 1680 m 0
 8280 2824 9136 3440 10040 3440 c 0
 10944 3440 11800 2824 11800 1680 c 0
 11800 536 10784 -80 10040 -80 c 0
 9136 -80 8280 536 8280 1680 c 0
5600 1680 m 0
 5600 664 5728 80 6120 80 c 0
 6512 80 6640 664 6640 1680 c 0
 6640 2696 6512 3280 6120 3280 c 0
 5728 3280 5600 2696 5600 1680 c 0
4360 1680 m 0
 4360 2824 5216 3440 6120 3440 c 0
 7024 3440 7880 2824 7880 1680 c 0
 7880 536 6864 -80 6120 -80 c 0
 5216 -80 4360 536 4360 1680 c 0
6000 6000 m 1
 6200 6000 l 1
 2160 0 l 1
 1960 0 l 1
 6000 6000 l 1
1520 4320 m 0
 1520 3304 1648 2720 2040 2720 c 0
 2432 2720 2560 3304 2560 4320 c 0
 2560 5336 2432 5920 2040 5920 c 0
 1648 5920 1520 5336 1520 4320 c 0
280 4320 m 0
 280 5464 1136 6080 2040 6080 c 0
 2944 6080 3800 5464 3800 4320 c 0
 3800 3176 2784 2560 2040 2560 c 0
 1136 2560 280 3176 280 4320 c 0
EndSplineSet
EndChar

StartChar: uniFB00
Encoding: 64256 64256 290
GlifName: uniF_B_00
Width: 5600
VWidth: 9240
Flags: HMW
LayerCount: 2
Fore
SplineSet
96 160 m 1
 5360 160 l 1
 5360 0 l 1
 96 0 l 1
 96 160 l 1
96 3680 m 1
 5520 3680 l 1
 5520 3520 l 1
 96 3520 l 1
 96 3680 l 1
3592 5248 m 1
 3544 5336 3264 5504 2912 5504 c 0
 2312 5504 1904 4936 1904 3920 c 2
 1904 0 l 1
 816 0 l 1
 816 3696 l 2
 816 4824 1680 5680 2880 5680 c 0
 3568 5680 4064 5224 4064 4728 c 0
 4064 4320 3800 4072 3440 4072 c 0
 3120 4072 2800 4264 2800 4664 c 0
 2800 5064 3072 5280 3424 5280 c 0
 3536 5280 3584 5248 3592 5248 c 1
5936 5688 m 1
 5840 5776 5648 5920 5296 5920 c 0
 4656 5920 4400 5336 4400 4320 c 2
 4400 0 l 1
 3320 0 l 1
 3320 4096 l 2
 3320 5224 4096 6080 5256 6080 c 0
 5944 6080 6360 5624 6360 5168 c 0
 6360 4760 6104 4512 5744 4512 c 0
 5424 4512 5096 4704 5096 5104 c 0
 5096 5504 5368 5728 5720 5728 c 0
 5832 5728 5928 5688 5936 5688 c 1
EndSplineSet
Ligature2: "'liga' Standard Ligatures lookup 0-1" f f
LCarets2: 1 0
EndChar

StartChar: uniFB01
Encoding: 64257 64257 291
GlifName: uniF_B_01
Width: 5016
VWidth: 9240
Flags: HMW
LayerCount: 2
Fore
SplineSet
816 4096 m 2
 816 5264 1640 6080 3040 6080 c 0
 3888 6080 4336 5624 4336 5128 c 0
 4336 4720 4088 4472 3728 4472 c 0
 3408 4472 3072 4664 3072 5064 c 0
 3072 5464 3344 5680 3696 5680 c 0
 3808 5680 3880 5640 3888 5640 c 1
 3824 5728 3552 5920 3040 5920 c 0
 2200 5920 1904 5336 1904 4320 c 2
 1904 0 l 1
 816 0 l 1
 816 4096 l 2
96 160 m 1
 4880 160 l 1
 4880 0 l 1
 96 0 l 1
 96 160 l 1
3200 3520 m 1
 96 3520 l 1
 96 3680 l 1
 4320 3680 l 1
 4320 0 l 1
 3200 0 l 1
 3200 3520 l 1
EndSplineSet
Ligature2: "'liga' Standard Ligatures lookup 0-1" f i
LCarets2: 1 0
EndChar

StartChar: uniFB02
Encoding: 64258 64258 292
GlifName: uniF_B_02
Width: 5376
VWidth: 9240
Flags: HMW
LayerCount: 2
Fore
SplineSet
96 160 m 1
 5296 160 l 1
 5296 0 l 1
 96 0 l 1
 96 160 l 1
96 3680 m 1
 3000 3680 l 1
 3000 3520 l 1
 96 3520 l 1
 96 3680 l 1
3536 5840 m 1
 4656 6160 l 1
 4656 0 l 1
 3536 0 l 1
 3536 5840 l 1
3488 5648 m 1
 3424 5736 3184 5920 2832 5920 c 0
 2192 5920 1904 5336 1904 4320 c 2
 1904 0 l 1
 816 0 l 1
 816 4096 l 2
 816 5224 1640 6080 2800 6080 c 0
 3488 6080 3904 5624 3904 5128 c 0
 3904 4720 3640 4472 3280 4472 c 0
 2960 4472 2640 4664 2640 5064 c 0
 2640 5464 2912 5680 3264 5680 c 0
 3376 5680 3480 5648 3488 5648 c 1
EndSplineSet
Ligature2: "'liga' Standard Ligatures lookup 0-1" f l
LCarets2: 1 0
EndChar

StartChar: uniFB03
Encoding: 64259 64259 293
GlifName: uniF_B_03
Width: 7440
VWidth: 9240
Flags: HMW
LayerCount: 2
Fore
SplineSet
3240 4096 m 2
 3240 5264 4056 6080 5456 6080 c 0
 6304 6080 6760 5624 6760 5128 c 0
 6760 4720 6504 4472 6144 4472 c 0
 5824 4472 5496 4664 5496 5064 c 0
 5496 5464 5768 5680 6120 5680 c 0
 6232 5680 6296 5640 6304 5640 c 1
 6240 5728 5968 5920 5456 5920 c 0
 4616 5920 4320 5336 4320 4320 c 2
 4320 0 l 1
 3240 0 l 1
 3240 4096 l 2
96 160 m 1
 7296 160 l 1
 7296 0 l 1
 96 0 l 1
 96 160 l 1
816 3696 m 2
 816 4816 1680 5680 2880 5680 c 0
 3568 5680 4064 5224 4064 4728 c 0
 4064 4320 3800 4072 3440 4072 c 0
 3120 4072 2800 4264 2800 4664 c 0
 2800 5064 3072 5280 3424 5280 c 0
 3536 5280 3584 5248 3592 5248 c 1
 3544 5336 3264 5504 2912 5504 c 0
 2312 5504 1904 4936 1904 3920 c 2
 1904 0 l 1
 816 0 l 1
 816 3696 l 2
5616 3520 m 1
 96 3520 l 1
 96 3680 l 1
 6736 3680 l 1
 6736 0 l 1
 5616 0 l 1
 5616 3520 l 1
EndSplineSet
Ligature2: "'liga' Standard Ligatures lookup 0-1" f f i
LCarets2: 2 0 0
EndChar

StartChar: uniFB04
Encoding: 64260 64260 294
GlifName: uniF_B_04
Width: 7920
VWidth: 9240
Flags: HMW
LayerCount: 2
Fore
SplineSet
96 160 m 1
 7800 160 l 1
 7800 0 l 1
 96 0 l 1
 96 160 l 1
96 3680 m 1
 5504 3680 l 1
 5504 3520 l 1
 96 3520 l 1
 96 3680 l 1
6040 5840 m 1
 7160 6160 l 1
 7160 0 l 1
 6040 0 l 1
 6040 5840 l 1
3592 5248 m 1
 3544 5336 3264 5504 2912 5504 c 0
 2312 5504 1904 4936 1904 3920 c 2
 1904 0 l 1
 816 0 l 1
 816 3696 l 2
 816 4816 1680 5680 2880 5680 c 0
 3568 5680 4064 5224 4064 4728 c 0
 4064 4320 3800 4072 3440 4072 c 0
 3120 4072 2800 4264 2800 4664 c 0
 2800 5064 3072 5280 3424 5280 c 0
 3536 5280 3584 5248 3592 5248 c 1
5984 5648 m 1
 5920 5736 5688 5920 5336 5920 c 0
 4696 5920 4400 5336 4400 4320 c 2
 4400 0 l 1
 3320 0 l 1
 3320 4096 l 2
 3320 5224 4136 6080 5296 6080 c 0
 5984 6080 6400 5624 6400 5128 c 0
 6400 4720 6144 4472 5784 4472 c 0
 5464 4472 5136 4664 5136 5064 c 0
 5136 5464 5408 5680 5760 5680 c 0
 5872 5680 5976 5648 5984 5648 c 1
EndSplineSet
Ligature2: "'liga' Standard Ligatures lookup 0-1" f f l
LCarets2: 2 0 0
EndChar

StartChar: ogonek
Encoding: 731 731 295
GlifName: ogonek
Width: 4400
Flags: HMW
LayerCount: 2
Fore
SplineSet
3200 -984 m 1
 3080 -1208 2896 -1568 2208 -1568 c 0
 1680 -1568 1216 -1360 1216 -880 c 0
 1216 -240 2000 168 2608 344 c 1
 2640 256 l 1
 2472 160 2288 -176 2288 -600 c 0
 2288 -1016 2392 -1280 2624 -1280 c 0
 2848 -1280 2984 -1096 3072 -928 c 1
 3200 -984 l 1
EndSplineSet
EndChar

StartChar: dotlessi
Encoding: 305 305 296
GlifName: dotlessi
Width: 2560
VWidth: 9240
Flags: HMW
LayerCount: 2
Fore
SplineSet
160 160 m 1
 2400 160 l 1
 2400 0 l 1
 160 0 l 1
 160 160 l 1
720 3520 m 1
 160 3520 l 1
 160 3680 l 1
 1840 3680 l 1
 1840 0 l 1
 720 0 l 1
 720 3520 l 1
EndSplineSet
EndChar

StartChar: uni0237
Encoding: 567 567 297
GlifName: uni0237
Width: 2536
VWidth: 9240
Flags: HMW
LayerCount: 2
Fore
SplineSet
1960 3680 m 1
 1960 -96 l 2
 1960 -1144 1344 -2080 224 -2080 c 0
 -504 -2080 -1000 -1688 -1000 -1152 c 0
 -1000 -744 -704 -472 -344 -472 c 0
 -24 -472 304 -664 304 -1064 c 0
 304 -1464 32 -1672 -400 -1672 c 0
 -432 -1672 -464 -1664 -464 -1664 c 1
 -416 -1728 -208 -1904 144 -1904 c 0
 984 -1904 840 -856 840 160 c 2
 840 3520 l 1
 120 3520 l 1
 120 3680 l 1
 1960 3680 l 1
EndSplineSet
EndChar

StartChar: kgreenlandic
Encoding: 312 312 306
GlifName: kgreenlandic
Width: 5328
VWidth: 9240
Flags: HMW
LayerCount: 2
Fore
SplineSet
4704 0 m 1
 3320 0 l 1
 1736 2128 l 1
 3912 3680 l 1
 4176 3680 l 1
 2728 2592 l 1
 4704 0 l 1
2752 160 m 1
 5008 160 l 1
 5008 0 l 1
 2752 0 l 1
 2752 160 l 1
4616 3520 m 1
 2832 3520 l 1
 2832 3680 l 1
 4616 3680 l 1
 4616 3520 l 1
120 160 m 1
 2400 160 l 1
 2400 0 l 1
 120 0 l 1
 120 160 l 1
840 3520 m 1
 120 3520 l 1
 120 3680 l 1
 1960 3680 l 1
 1960 0 l 1
 840 0 l 1
 840 3520 l 1
EndSplineSet
EndChar

StartChar: breve
Encoding: 728 728 307
GlifName: breve
Width: 2400
VWidth: 9240
Flags: HMW
LayerCount: 2
Fore
SplineSet
400 6072 m 1
 400 5704 768 5560 1200 5560 c 0
 1632 5560 2000 5704 2000 6072 c 1
 2160 6072 l 1
 2160 5304 1880 4800 1200 4800 c 0
 520 4800 240 5304 240 6072 c 1
 400 6072 l 1
EndSplineSet
EndChar

StartChar: thorn
Encoding: 254 254 318
GlifName: thorn
Width: 4984
VWidth: 9240
Flags: HMW
LayerCount: 2
Fore
SplineSet
1680 1840 m 0
 1680 3056 2160 3752 3048 3752 c 0
 3920 3752 4744 3040 4744 1840 c 0
 4744 640 3920 -80 3048 -80 c 0
 2160 -80 1680 624 1680 1840 c 0
1800 1840 m 0
 1800 688 2352 176 2728 176 c 0
 3240 176 3464 768 3464 1840 c 0
 3464 2912 3264 3488 2752 3488 c 0
 2344 3488 1800 2992 1800 1840 c 0
120 -1840 m 1
 2360 -1840 l 1
 2360 -2000 l 1
 120 -2000 l 1
 120 -1840 l 1
680 5840 m 1
 120 5840 l 1
 120 6000 l 1
 1800 6000 l 1
 1800 -2000 l 1
 680 -2000 l 1
 680 5840 l 1
EndSplineSet
EndChar

StartChar: Thorn
Encoding: 222 222 319
GlifName: T_horn
Width: 5360
Flags: HMW
LayerCount: 2
Fore
SplineSet
840 6000 m 1
 2080 6000 l 1
 2080 0 l 1
 840 0 l 1
 840 6000 l 1
120 160 m 1
 2800 160 l 1
 2800 0 l 1
 120 0 l 1
 120 160 l 1
120 6000 m 1
 2800 6000 l 1
 2800 5840 l 1
 120 5840 l 1
 120 6000 l 1
2960 1440 m 2
 1920 1440 l 1
 1920 1600 l 1
 2680 1600 l 2
 3448 1600 3720 2408 3720 3120 c 0
 3720 3832 3448 4640 2680 4640 c 2
 1920 4640 l 1
 1920 4800 l 1
 2960 4800 l 2
 4408 4800 5080 4160 5080 3120 c 0
 5080 2080 4408 1440 2960 1440 c 2
EndSplineSet
EndChar

StartChar: Lslash
Encoding: 321 321 324
GlifName: L_slash
Width: 4920
Flags: HMW
LayerCount: 2
Fore
SplineSet
120 2880 m 1
 3280 4640 l 1
 3280 4440 l 1
 120 2680 l 1
 120 2880 l 1
EndSplineSet
Refer: 23 76 N 1 0 0 1 0 0 2
EndChar

StartChar: lslash
Encoding: 322 322 325
GlifName: lslash
Width: 2880
VWidth: 9240
Flags: HMW
LayerCount: 2
Fore
SplineSet
120 3040 m 1
 2800 4640 l 1
 2800 4432 l 1
 120 2832 l 1
 120 3040 l 1
EndSplineSet
Refer: 49 108 N 1 0 0 1 0 0 2
EndChar

StartChar: eth
Encoding: 240 240 329
GlifName: eth
Width: 4880
VWidth: 9240
Flags: HMW
LayerCount: 2
Fore
SplineSet
1040 5040 m 1
 4600 5040 l 1
 4600 4880 l 1
 1040 4880 l 1
 1040 5040 l 1
4480 2480 m 0
 4480 800 3616 -80 2328 -80 c 0
 1040 -80 240 800 240 2000 c 0
 240 3360 1224 3936 2112 3936 c 0
 3080 3936 3272 3216 3272 2240 c 1
 3160 2240 l 1
 3160 3280 2832 3688 2368 3688 c 0
 1856 3688 1560 3272 1560 2000 c 0
 1560 888 1672 80 2304 80 c 0
 2936 80 3160 968 3160 2240 c 1
 3160 2960 l 1
 3160 4336 2272 5944 840 5944 c 1
 840 6080 l 1
 2904 6080 4480 4496 4480 2480 c 0
EndSplineSet
EndChar

StartChar: OE
Encoding: 338 338 330
GlifName: O_E_
Width: 7936
Flags: HMW
LayerCount: 2
Fore
SplineSet
3200 5840 m 1025,0,0
1720 3000 m 0,0,0
 1720 1424 2088 160 3200 160 c 1,0,0
 3040 0 l 1,0,0
 1416 0 320 1216 320 3000 c 0,0,0
 320 4784 1416 6000 3040 6000 c 1,0,0
 3200 5840 l 1,0,0
 2088 5840 1720 4576 1720 3000 c 0,0,0
EndSplineSet
Refer: 16 69 N 1 0 0 1 2920 0 2
EndChar

StartChar: germandbls
Encoding: 223 223 332
GlifName: germandbls
Width: 6168
VWidth: 9240
Flags: HMW
LayerCount: 2
Fore
SplineSet
3224 3208 m 1
 3224 3320 l 1
 4096 3320 4320 4056 4320 4568 c 0
 4320 5144 4096 5944 3304 5944 c 0
 2312 5944 2040 4984 2040 3848 c 2
 2040 0 l 1
 840 0 l 1
 840 3928 l 2
 840 5392 2040 6080 3344 6080 c 0
 4488 6080 5608 5512 5608 4648 c 0
 5608 3768 4832 3208 3224 3208 c 1
120 160 m 1
 2760 160 l 1
 2760 0 l 1
 120 0 l 1
 120 160 l 1
5848 1400 m 0
 5848 440 4936 -80 3968 -80 c 0
 3240 -80 2704 432 2704 1248 c 0
 2704 1696 3040 1928 3400 1928 c 0
 3720 1928 4032 1728 4032 1320 c 0
 4032 944 3688 720 3376 720 c 0
 3288 720 3080 736 2984 816 c 1
 3064 440 3472 104 3848 104 c 0
 4440 104 4560 768 4560 1280 c 0
 4560 2032 4416 3168 3224 3168 c 1
 3224 3280 l 1
 5152 3280 5848 2440 5848 1400 c 0
EndSplineSet
EndChar

StartChar: circumflex
Encoding: 710 710 335
GlifName: circumflex
Width: 3400
Flags: HMW
LayerCount: 2
Fore
SplineSet
1696 5600 m 1
 480 5000 l 1
 400 5080 l 1
 1360 6160 l 1
 2040 6160 l 1
 3000 5080 l 1
 2920 5000 l 1
 1696 5600 l 1
EndSplineSet
EndChar

StartChar: caron
Encoding: 711 711 336
GlifName: caron
Width: 3400
Flags: HMW
LayerCount: 2
Fore
SplineSet
1696 5720 m 1
 2920 6320 l 1
 3000 6240 l 1
 2040 5160 l 1
 1360 5160 l 1
 400 6240 l 1
 480 6320 l 1
 1696 5720 l 1
EndSplineSet
EndChar

StartChar: pi
Encoding: 960 960 337
GlifName: pi
Width: 5048
VWidth: 9240
Flags: HMW
LayerCount: 2
Fore
SplineSet
4768 824 m 1
 4584 264 4248 -80 3704 -80 c 0
 3168 -80 2768 152 2768 664 c 2
 2768 3360 l 1
 3888 3360 l 1
 3888 768 l 2
 3888 608 3992 480 4184 480 c 0
 4328 480 4496 616 4648 888 c 1
 4768 824 l 1
992 -80 m 0
 584 -80 320 144 320 464 c 0
 320 1208 1576 856 1576 2232 c 2
 1576 3600 l 1
 2024 3600 l 1
 2024 1944 l 2
 2024 680 1656 -80 992 -80 c 0
4608 3680 m 1
 4608 2560 l 1
 488 2560 l 1
 488 1960 l 1
 328 1960 l 1
 328 3680 l 1
 4608 3680 l 1
EndSplineSet
EndChar

StartChar: uni1E9E
Encoding: 7838 7838 338
GlifName: uni1E_9E_
Width: 7128
VWidth: 9240
Flags: HMW
LayerCount: 2
Fore
SplineSet
120 160 m 1
 2840 160 l 1
 2840 0 l 1
 120 0 l 1
 120 160 l 1
4864 3088 m 1
 3664 3320 l 1
 5504 5632 l 1
 5216 5776 4776 5904 4224 5904 c 0
 2672 5904 2120 4944 2120 3448 c 2
 2120 0 l 1
 840 0 l 1
 840 3528 l 2
 840 5232 2320 6080 4224 6080 c 0
 5448 6080 6288 5552 6568 5248 c 1
 4864 3088 l 1
3096 792 m 1
 3192 568 3648 112 4368 112 c 0
 5216 112 5504 728 5504 1600 c 0
 5504 2312 5216 3168 3664 3168 c 1
 3664 3320 l 1
 6112 3320 6808 2576 6808 1616 c 0
 6808 536 5816 -80 4608 -80 c 0
 3352 -80 2760 632 2760 1288 c 0
 2760 1736 3056 2032 3456 2032 c 0
 3816 2032 4096 1768 4096 1360 c 0
 4096 984 3768 720 3416 720 c 0
 3248 720 3128 784 3096 792 c 1
EndSplineSet
EndChar

StartChar: uni203D
Encoding: 8253 8253 339
GlifName: uni203D_
Width: 5280
Flags: HMW
LayerCount: 2
Fore
SplineSet
3248 4152 m 0
 3160 3384 2656 2504 2656 1944 c 1
 2496 1944 l 1
 2496 2504 2152 3384 2064 4152 c 0
 2056 4208 2056 4256 2056 4304 c 0
 2056 4528 2200 4904 2656 4904 c 0
 3112 4904 3256 4528 3256 4304 c 0
 3256 4256 3256 4208 3248 4152 c 0
520 4448 m 0
 520 5184 1312 6080 2728 6080 c 0
 3936 6080 4960 5480 4960 4400 c 0
 4960 3360 3744 2680 2696 2680 c 1
 2696 2792 l 1
 3352 2880 3912 3736 3912 4480 c 0
 3912 5232 3416 5832 2544 5832 c 0
 1472 5832 984 5232 864 4928 c 1
 896 4936 1008 5000 1176 5000 c 0
 1528 5000 1752 4680 1752 4400 c 0
 1752 3960 1416 3752 1136 3752 c 0
 816 3752 520 4000 520 4448 c 0
EndSplineSet
Refer: 1 46 N 1 0 0 1 1512 0 2
EndChar

StartChar: R.alt
Encoding: 65536 -1 340
GlifName: R_.alt
Width: 5816
Flags: HMW
LayerCount: 2
Fore
SplineSet
2944 3056 m 2
 1584 3056 l 1
 1584 3160 l 1
 2736 3160 l 2
 3504 3160 3904 3568 3904 4520 c 0
 3904 5472 3504 5840 2736 5840 c 2
 144 5840 l 1
 144 6000 l 1
 2944 6000 l 2
 4272 6000 5184 5560 5184 4520 c 0
 5184 3480 4352 3056 2944 3056 c 2
144 160 m 1
 2976 160 l 1
 2976 0 l 1
 144 0 l 1
 144 160 l 1
944 6000 m 1
 2176 6000 l 1
 2176 0 l 1
 944 0 l 1
 944 6000 l 1
5744 0 m 1
 5616 0 5152 0 4864 0 c 0
 2760 0 4672 3000 2704 3000 c 2
 1584 3000 l 1
 1584 3080 l 1
 3344 3080 l 2
 6048 3080 4432 160 5456 160 c 0
 5624 160 5632 160 5744 160 c 1
 5744 0 l 1
EndSplineSet
EndChar

StartChar: J.alt
Encoding: 65537 -1 341
GlifName: J_.alt
Width: 5064
Flags: HMW
LayerCount: 2
Fore
SplineSet
1904 6000 m 1
 4944 6000 l 1
 4944 5840 l 1
 1904 5840 l 1
 1904 6000 l 1
2912 6000 m 1
 4144 6000 l 1
 4144 1800 l 1
 3904 680 3232 -160 1824 -160 c 0
 768 -160 144 600 144 1320 c 0
 144 1936 552 2280 992 2280 c 0
 1392 2280 1728 2016 1728 1552 c 0
 1728 1152 1400 816 968 816 c 0
 728 816 512 936 368 1088 c 1
 448 568 936 8 1744 8 c 0
 2592 8 2912 640 2912 1760 c 2
 2912 6000 l 1
EndSplineSet
EndChar

StartChar: four.alt
Encoding: 65538 -1 342
GlifName: four.alt
Width: 5240
VWidth: 9240
Flags: HMW
LayerCount: 2
Fore
SplineSet
4720 160 m 1
 4720 0 l 1
 2120 0 l 1
 2120 160 l 1
 4720 160 l 1
4120 3984 m 1
 4120 -8 l 1
 2880 -8 l 1
 2880 3624 l 1
 3240 3624 3880 3824 4120 3984 c 1
416 1640 m 1
 4840 1640 l 1
 4840 1480 l 1
 120 1480 l 1
 1240 3080 2480 4800 2640 6000 c 1
 3984 6000 l 1
 3832 4640 1544 3192 416 1640 c 1
EndSplineSet
EndChar

StartChar: fj.lig
Encoding: 65539 -1 343
GlifName: fj.lig
Width: 4888
VWidth: 9240
Flags: HMW
LayerCount: 2
Fore
SplineSet
96 160 m 1
 2640 160 l 1
 2640 0 l 1
 96 0 l 1
 96 160 l 1
4280 -96 m 2
 4280 -1144 3664 -2080 2544 -2080 c 0
 1816 -2080 1320 -1688 1320 -1152 c 0
 1320 -744 1616 -472 1976 -472 c 0
 2296 -472 2624 -664 2624 -1064 c 0
 2624 -1464 2352 -1672 1920 -1672 c 0
 1896 -1672 1864 -1664 1856 -1664 c 1
 1904 -1728 2112 -1904 2464 -1904 c 0
 3304 -1904 3160 -856 3160 160 c 2
 3160 3520 l 1
 96 3520 l 1
 96 3680 l 1
 4280 3680 l 1
 4280 -96 l 2
3840 5640 m 1
 3776 5728 3504 5920 2992 5920 c 0
 2152 5920 1904 5336 1904 4320 c 2
 1904 0 l 1
 816 0 l 1
 816 4096 l 2
 816 5264 1592 6080 2992 6080 c 0
 3840 6080 4304 5624 4304 5128 c 0
 4304 4720 4040 4472 3680 4472 c 0
 3360 4472 3040 4664 3040 5064 c 0
 3040 5464 3312 5680 3664 5680 c 0
 3776 5680 3832 5640 3840 5640 c 1
EndSplineSet
LCarets2: 1 0
Ligature2: "'liga' Standard Ligatures lookup 0-1" f j
EndChar

StartChar: uni2116
Encoding: 8470 8470 344
GlifName: uni2116
Width: 9168
Flags: HW
LayerCount: 2
Fore
SplineSet
6920 4560 m 0
 6920 3648 7080 3200 7472 3200 c 0
 7864 3200 8024 3648 8024 4560 c 0
 8024 5472 7864 5920 7472 5920 c 0
 7080 5920 6920 5472 6920 4560 c 0
6000 4560 m 0
 6000 5560 6624 6080 7472 6080 c 0
 8320 6080 8944 5560 8944 4560 c 0
 8944 3560 8320 3040 7472 3040 c 0
 6624 3040 6000 3560 6000 4560 c 0
EndSplineSet
Refer: 85 45 N 1 0 0 1 6032 320 2
Refer: 25 78 N 1 0 0 1 0 0 2
EndChar

StartChar: Euro
Encoding: 8364 8364 345
Width: 5800
Flags: HW
LayerCount: 2
Fore
SplineSet
5000 5392 m 1
 4824 5592 4424 5888 3832 5888 c 0
 2680 5888 2320 4552 2320 3000 c 0
 2320 1288 2768 160 3680 160 c 0
 4440 160 4968 760 5168 1424 c 1
 5344 1424 l 1
 5136 648 4512 -80 3464 -80 c 0
 2056 -80 880 1160 880 3000 c 0
 880 4680 1944 6080 3672 6080 c 0
 4768 6080 5440 5384 5440 4848 c 0
 5440 4400 5144 4152 4784 4152 c 0
 4464 4152 4128 4360 4128 4800 c 0
 4128 5200 4432 5440 4784 5440 c 0
 4872 5440 4952 5416 5000 5392 c 1
EndSplineSet
Refer: 88 61 N 1 0 0 1 -240 -560 2
EndChar
